<?xml version="1.0" encoding="utf-8"?>
<!-- Generator: Adobe Illustrator 16.0.0, SVG Export Plug-In . SVG Version: 6.00 Build 0)  -->
<!DOCTYPE svg PUBLIC "-//W3C//DTD SVG 1.1//EN" "http://www.w3.org/Graphics/SVG/1.1/DTD/svg11.dtd">
<svg version="1.1" id="Layer_1" xmlns="http://www.w3.org/2000/svg" xmlns:xlink="http://www.w3.org/1999/xlink" x="0px" y="0px"
	 width="136.833px" height="136.833px" viewBox="0 0 136.833 136.833" style="enable-background:new 0 0 136.833 136.833;"
	 xml:space="preserve">
<style type="text/css">
<![CDATA[
	.st0{fill:#7A430B;}
	.st1{fill:#AA9A83;}
	.st2{fill:#AC4736;}
	.st3{fill:#499544;}
	.st4{fill:#7D3719;}
	.st5{fill:#AD842D;}
	.st6{fill:#AE8032;}
	.st7{fill:#AF5E27;}
	.st8{fill:#E0A925;}
	.st9{fill:#E0E0E0;}
	.st10{fill:#E1544A;}
	.st11{fill:#E1B623;}
	.st12{fill:#E37926;}
	.st13{fill:#E3DFC6;}
	.st14{fill:#E3E4E5;}
	.st15{fill:#E48225;}
	.st16{fill:#E4C88F;}
	.st17{fill:#E54526;}
	.st18{fill:#E55126;}
	.st19{fill:#4ABC96;}
	.st20{fill:#E5DBCF;}
	.st21{fill:#184166;}
	.st22{fill:#196935;}
	.st23{fill:#4D8741;}
	.st24{fill:#E89C23;}
	.st25{fill:#E8DADD;}
	.st26{fill:#E8EAEB;}
	.st27{fill:#E92C25;}
	.st28{fill:#E9683B;}
	.st29{fill:#E98F23;}
	.st30{fill:#E99323;}
	.st31{fill:#E9B14D;}
	.st32{fill:#E9D8CB;}
	.st33{fill:#E9EEEE;}
	.st34{fill:#B1C635;}
	.st35{fill:#B21F24;}
	.st36{opacity:0.25;}
	.st37{fill:#83B041;}
	.st38{fill:#846A35;}
	.st39{fill:#B3BB35;}
	.st40{fill:#85983A;}
	.st41{fill:#864F4F;}
	.st42{fill:#EA9F3C;}
	.st43{fill:#EAAE7A;}
	.st44{fill:#EAD760;}
	.st45{fill:#B73535;}
	.st46{fill:#B7567D;}
	.st47{fill:#B79051;}
	.st48{fill:#EB7623;}
	.st49{fill:#EB8123;}
	.st50{fill:#EB9682;}
	.st51{fill:#EB9C22;}
	.st52{fill:#1D9E49;}
	.st53{fill:#B88B3B;}
	.st54{fill:#B88C33;}
	.st55{fill:#EC1C24;}
	.st56{fill:#EC2224;}
	.st57{fill:#ECDE7A;}
	.st58{fill:#EDC92C;}
	.st59{fill:#EDEDED;}
	.st60{fill:#EEB760;}
	.st61{fill:#EEE26F;}
	.st62{fill:#EFCF8A;}
	.st63{fill:#EFCFA7;}
	.st64{fill:#EFEFEF;}
	.st65{fill:#EFF2F1;}
	.st66{fill:#543D18;}
	.st67{fill:#568D4D;}
	.st68{fill:#8B5122;}
	.st69{fill:#8BC53F;}
	.st70{fill:#BB6828;}
	.st71{fill:#BB9E70;}
	.st72{fill:#BDDA83;}
	.st73{fill:#BE6328;}
	.st74{fill:#8F8547;}
	.st75{fill:#F0A91E;}
	.st76{fill:#F0B234;}
	.st77{fill:#F1CE6A;}
	.st78{fill:#F1CF13;}
	.st79{fill:#F1E2A3;}
	.st80{fill:#F2BA2C;}
	.st81{fill:#F2CF3B;}
	.st82{fill:#F2E78A;}
	.st83{fill:#F2ECC6;}
	.st84{fill:#F37C2A;}
	.st85{fill:#F3B022;}
	.st86{fill:#F3C121;}
	.st87{fill:#F3C480;}
	.st88{fill:#F3E4CE;}
	.st89{fill:#F4BD1C;}
	.st90{fill:#F4CE9D;}
	.st91{fill:#264E6E;}
	.st92{fill:#F58721;}
	.st93{fill:#F5D1AF;}
	.st94{fill:#F5E11C;}
	.st95{fill:#F69220;}
	.st96{fill:#F6E6E8;}
	.st97{fill:#5C2A2A;}
	.st98{fill:#F7991F;}
	.st99{fill:#F7CC55;}
	.st100{fill:#F7E8DD;}
	.st101{fill:#F8DA02;}
	.st102{fill:#F8E37F;}
	.st103{fill:#F8F0E9;}
	.st104{fill:#F9A65C;}
	.st105{fill:#F9C74F;}
	.st106{fill:#F9C900;}
	.st107{fill:#F9CE82;}
	.st108{fill:#F9ECE0;}
	.st109{fill:#F9ECE4;}
	.st110{fill:#F9EDE4;}
	.st111{clip-path:url(#SVGID_2_);}
	.st112{clip-path:url(#SVGID_4_);}
	.st113{clip-path:url(#SVGID_6_);}
	.st114{clip-path:url(#SVGID_8_);}
	.st115{fill:#C13B3B;}
	.st116{fill:#C16028;}
	.st117{fill:#925A25;}
	.st118{fill:#C35328;}
	.st119{fill:#C42126;}
	.st120{fill:#952E25;}
	.st121{fill:#C4BEBA;}
	.st122{fill:#95C83D;}
	.st123{fill:#C6C3C2;}
	.st124{fill:#2CAEA1;}
	.st125{fill:#989897;}
	.st126{fill:#99B93C;}
	.st127{fill:#C9C9C9;}
	.st128{fill:#FDD300;}
	.st129{fill:#FDD600;}
	.st130{fill:#FDD842;}
	.st131{fill:#FDE500;}
	.st132{opacity:0.5;}
	.st133{opacity:0.6;}
	.st134{opacity:0.8;}
	.st135{fill:#FFDD4D;}
	.st136{fill:#FFEFAE;}
	.st137{fill:#FFFBF8;}
	.st138{fill:#FFFFFF;}
	.st139{fill:#CA2027;}
	.st140{fill:#CB7129;}
	.st141{fill:#CC3828;}
	.st142{fill:#9E4F23;}
	.st143{fill:#CECFD0;}
	.st144{fill:#CF4827;}
	.st145{fill:#39617D;}
	.st146{fill:#D1BAC0;}
	.st147{fill:#034F6D;}
	.st148{fill:#D2AE73;}
	.st149{fill:#D2B676;}
	.st150{fill:#D62127;}
	.st151{fill:#D62427;}
	.st152{fill:#D6AC60;}
	.st153{fill:#D6D0CC;}
	.st154{fill:#D7C527;}
	.st155{fill:#D7D7D7;}
	.st156{fill:#702313;}
	.st157{clip-path:url(#SVGID_10_);}
	.st158{clip-path:url(#SVGID_12_);}
	.st159{clip-path:url(#SVGID_14_);}
	.st160{clip-path:url(#SVGID_16_);}
	.st161{fill:#A31E22;}
	.st162{fill:#A46A28;}
	.st163{fill:#76692A;}
	.st164{fill:#DA1F26;}
	.st165{fill:#DB2F2C;}
	.st166{fill:#DBD0A1;}
	.st167{fill:#DBDDDC;}
	.st168{fill:#A81E22;}
	.st169{fill:#796027;}
	.st170{fill:#DC965F;}
	.st171{fill:#DD9328;}
	.st172{fill:#DD9454;}
	.st173{fill:#DDC97D;}
	.st174{fill:#DDDFE0;}
	.st175{fill:#DDE077;}
	.st176{fill:#DFE0E1;}
]]>
</style>
<g>
	<g>
		<g>
			<g>
				<g>
					<g>
						<circle class="st147" cx="68.417" cy="68.417" r="63.333"/>
					</g>
				</g>
			</g>
		</g>
	</g>
	<g>
		<g>
			<g>
				<path class="st77" d="M110.877,91.75c-2.872,8.82-18.366,13.949-41.021,13.949c-22.656,0-38.971-4.922-41.022-14.153
					c-0.529-2.384,0-7.794,0-7.794c7.325-3.302,26.647-2.256,41.022-2.256c12.589,0,34.148-1.726,41.674,0.907
					C111.53,82.403,111.797,88.927,110.877,91.75z"/>
			</g>
		</g>
		<g>
			<g>
				<path class="st76" d="M69.856,105.699c-22.656,0-38.971-4.922-41.022-14.153c-0.529-2.384,0-7.794,0-7.794
					c7.325-3.302,26.647-2.256,41.022-2.256V105.699z"/>
			</g>
		</g>
		<g>
			<g>
				<ellipse class="st85" cx="69.855" cy="83.751" rx="41.022" ry="12.102"/>
			</g>
		</g>
		<g>
			<g>
				<ellipse class="st85" cx="71.497" cy="82.403" rx="40.033" ry="11.81"/>
			</g>
		</g>
		<g>
			<g>
				<g>
					<path class="st38" d="M110.213,82.246c0,6.308-17.334,11.42-38.717,11.42S32.78,88.553,32.78,82.246c0-2.307,0-9.292,0-9.292
						c6.914-3.117,25.149-2.13,38.717-2.13c11.881,0,31.614-0.646,38.717,1.839C110.213,72.663,110.213,79.441,110.213,82.246z"/>
				</g>
			</g>
			<g>
				<g>
					<path class="st169" d="M71.497,93.666c-21.383,0-38.717-5.112-38.717-11.42c0-2.307,0-9.292,0-9.292
						c6.914-3.117,38.717-2.361,38.717-2.13C71.497,71.054,71.497,93.666,71.497,93.666z"/>
				</g>
			</g>
			<g>
				<g>
					<ellipse class="st66" cx="71.497" cy="72.954" rx="38.717" ry="11.42"/>
				</g>
			</g>
		</g>
		<g>
			<g>
				<g>
					<path class="st141" d="M110.641,75.345c0,5.416-10.669,9.809-23.83,9.809c-13.16,0-23.829-4.393-23.829-9.809
						c0-1.982,0-3.797,0-3.797c4.255-2.677,15.479-1.829,23.829-1.829c7.314,0,19.458-0.555,23.83,1.58
						C110.641,71.299,110.641,72.936,110.641,75.345z"/>
				</g>
			</g>
			<g>
				<g>
					<ellipse class="st10" cx="86.812" cy="71.548" rx="23.83" ry="9.811"/>
				</g>
			</g>
		</g>
		<g>
			<g>
				<g>
					<path class="st141" d="M75.461,72.88c0,5.418-9.881,9.811-22.067,9.811s-22.067-4.393-22.067-9.811c0-1.98,0-3.659,0-3.659
						c3.939-2.676,14.334-1.829,22.067-1.829c6.772,0,18.019-0.554,22.067,1.58C75.461,68.972,75.461,70.473,75.461,72.88z"/>
				</g>
			</g>
			<g>
				<g>
					<ellipse class="st10" cx="53.394" cy="69.221" rx="22.067" ry="9.811"/>
				</g>
			</g>
		</g>
		<g>
			<g>
				<g>
					<path class="st38" d="M106.553,68.621c0,6.006-16.502,10.874-36.858,10.874c-20.357,0-36.86-4.868-36.86-10.874
						c0-2.193,0-8.846,0-8.846c6.582-2.967,23.944-2.027,36.86-2.027c11.312,0,30.097-0.615,36.858,1.751
						C106.553,59.499,106.553,65.953,106.553,68.621z"/>
				</g>
			</g>
			<g>
				<g>
					<path class="st169" d="M69.695,79.495c-20.357,0-36.86-4.868-36.86-10.874c0-2.193,0-8.846,0-8.846
						c6.582-2.967,23.944-2.027,36.86-2.027V79.495z"/>
				</g>
			</g>
			<g>
				<g>
					<path class="st130" d="M106.792,62.937c-13.553,7.482-37.211,15.002-37.211,15.002S45.652,71.65,32.372,62.937
						c-5.07-3.326,16.658-13.848,37.209-13.848C90.132,49.089,112.099,60.006,106.792,62.937z"/>
				</g>
			</g>
			<g>
				<g>
					<path class="st129" d="M69.581,77.939c0,0-23.929-6.289-37.209-15.002c-5.07-3.326,16.658-13.848,37.209-13.848
						C76.008,49.089,69.581,77.939,69.581,77.939z"/>
				</g>
			</g>
			<g>
				<g>
					<g>
						<path class="st77" d="M30.081,54.982c0-12.378,17.688-23.533,39.503-23.533c21.816,0,39.503,11.155,39.503,23.533
							c0,12.379-17.687,10.787-39.503,10.787C47.768,65.769,30.081,67.361,30.081,54.982z"/>
					</g>
				</g>
				<g>
					<g>
						<path class="st75" d="M30.081,54.982c0-12.378,17.688-23.533,39.503-23.533c13.726,0,9.104,34.32,0,34.32
							C47.768,65.769,30.081,67.361,30.081,54.982z"/>
					</g>
				</g>
				<g>
					<g>
						<g>
							<ellipse class="st138" cx="80.158" cy="38.173" rx="1.471" ry="1.681"/>
						</g>
					</g>
					<g>
						<g>
							<ellipse class="st138" cx="66.92" cy="45.738" rx="1.471" ry="1.68"/>
						</g>
					</g>
					<g>
						<g>
							<ellipse class="st138" cx="52.211" cy="54.142" rx="1.471" ry="1.681"/>
						</g>
					</g>
					<g>
						<g>
							<ellipse class="st138" cx="73.854" cy="56.243" rx="1.471" ry="1.681"/>
						</g>
					</g>
					<g>
						<g>
							<ellipse class="st138" cx="88.143" cy="49.099" rx="1.47" ry="1.682"/>
						</g>
					</g>
					<g>
						<g>
							<ellipse class="st138" cx="96.758" cy="58.765" rx="1.471" ry="1.68"/>
						</g>
					</g>
					<g>
						<g>
							<ellipse class="st138" cx="100.331" cy="43.215" rx="1.471" ry="1.681"/>
						</g>
					</g>
					<g>
						<g>
							<ellipse class="st138" cx="59.356" cy="36.492" rx="1.471" ry="1.682"/>
						</g>
					</g>
					<g>
						<g>
							<ellipse class="st138" cx="35.192" cy="52.461" rx="1.471" ry="1.681"/>
						</g>
					</g>
					<g>
						<g>
							<ellipse class="st138" cx="46.328" cy="44.477" rx="1.47" ry="1.681"/>
						</g>
					</g>
				</g>
			</g>
		</g>
	</g>
</g>
</svg>
