<?xml version="1.0" encoding="utf-8"?>
<!-- Generator: Adobe Illustrator 16.0.0, SVG Export Plug-In . SVG Version: 6.00 Build 0)  -->
<!DOCTYPE svg PUBLIC "-//W3C//DTD SVG 1.1//EN" "http://www.w3.org/Graphics/SVG/1.1/DTD/svg11.dtd">
<svg version="1.1" id="Layer_1" xmlns="http://www.w3.org/2000/svg" xmlns:xlink="http://www.w3.org/1999/xlink" x="0px" y="0px"
	 width="136.833px" height="136.834px" viewBox="0 0 136.833 136.834" style="enable-background:new 0 0 136.833 136.834;"
	 xml:space="preserve">
<style type="text/css">
<![CDATA[
	.st0{fill:#7A5628;}
	.st1{fill:#49A0AE;}
	.st2{fill:#ACA8A9;}
	.st3{fill:#7DB6B7;}
	.st4{fill:#11100E;}
	.st5{fill:#7FCDCC;}
	.st6{fill:#E0DAD2;}
	.st7{fill:#E1E1E1;}
	.st8{fill:#13B3CA;}
	.st9{fill:#E3E4E5;}
	.st10{fill:#15B5AC;}
	.st11{fill:#E4B894;}
	.st12{fill:#E4C88F;}
	.st13{fill:#E4DED0;}
	.st14{fill:#4A86C5;}
	.st15{fill:#4ABC96;}
	.st16{fill:#171413;}
	.st17{fill:#E5CE27;}
	.st18{fill:#187070;}
	.st19{fill:#E7CB7C;}
	.st20{fill:#E7DDB3;}
	.st21{fill:#E7E9EA;}
	.st22{fill:#E84849;}
	.st23{fill:#E89423;}
	.st24{fill:#E8CC7C;}
	.st25{fill:#E8EAEB;}
	.st26{fill:#E97539;}
	.st27{fill:#E9C29C;}
	.st28{fill:#E9DC96;}
	.st29{fill:#B16E29;}
	.st30{opacity:0.01;}
	.st31{opacity:0.45;}
	.st32{fill:#1A1919;}
	.st33{fill:#B69B30;}
	.st34{fill:#EADD97;}
	.st35{fill:#EB9682;}
	.st36{fill:#B7B7B7;}
	.st37{fill:#EBD9A9;}
	.st38{fill:#1DA049;}
	.st39{fill:#1E1913;}
	.st40{fill:#1E1B17;}
	.st41{fill:#ECDAAA;}
	.st42{fill:#ECE6D5;}
	.st43{fill:#ED3351;}
	.st44{fill:#B9B9BA;}
	.st45{fill:#EDECED;}
	.st46{fill:#1FA85B;}
	.st47{fill:#EEE17F;}
	.st48{fill:#EEE4B8;}
	.st49{fill-rule:evenodd;clip-rule:evenodd;fill:#7FCDCC;}
	.st50{fill:#515252;}
	.st51{fill:#543A1A;}
	.st52{fill:#BB2025;}
	.st53{fill:#8C652E;}
	.st54{fill:#8C8C8C;}
	.st55{fill:#212121;}
	.st56{fill:#BF2126;}
	.st57{fill:#BFBEBE;}
	.st58{fill:#F0C418;}
	.st59{fill:#F0CF6A;}
	.st60{fill:#F0E3C8;}
	.st61{fill:#F1D069;}
	.st62{fill:#F1E4C8;}
	.st63{fill:#F2D083;}
	.st64{fill:#F3BB70;}
	.st65{fill:#F3C715;}
	.st66{fill:#F3D183;}
	.st67{fill:#258C8E;}
	.st68{fill:#25999B;}
	.st69{fill:#F4E028;}
	.st70{fill:#F59798;}
	.st71{fill:#F5DE57;}
	.st72{fill:#F6A2A3;}
	.st73{fill:#F6F7F7;}
	.st74{fill:#28999B;}
	.st75{fill:#F7DF56;}
	.st76{fill:#29A5AE;}
	.st77{fill:#F8B85C;}
	.st78{fill:#F8D648;}
	.st79{fill:#F8DC62;}
	.st80{fill:#F8E69B;}
	.st81{fill:#F8E9AB;}
	.st82{fill:#F8F3DC;}
	.st83{fill:#F9A11C;}
	.st84{fill:#F9A72F;}
	.st85{fill:#F9A731;}
	.st86{fill:#F9E478;}
	.st87{fill:#F9EC34;}
	.st88{fill:#92C7CB;}
	.st89{fill:#93574E;}
	.st90{fill:#939291;}
	.st91{fill:#C2D2D3;}
	.st92{fill:#C42126;}
	.st93{fill:#C47267;}
	.st94{fill:#C4C3C3;}
	.st95{fill:#C5A72E;}
	.st96{fill:#2B2B2B;}
	.st97{fill:#2B5C64;}
	.st98{fill:#FACB83;}
	.st99{fill:#2D2D2D;}
	.st100{fill:#FBEC68;}
	.st101{fill:#2D646D;}
	.st102{fill:#FBF3CE;}
	.st103{fill:#C8802A;}
	.st104{fill:#99999A;}
	.st105{fill:#C8C8C8;}
	.st106{fill-rule:evenodd;clip-rule:evenodd;fill:#59A29F;}
	.st107{fill:#99CED5;}
	.st108{fill:#FDF3D0;}
	.st109{fill:#2F8442;}
	.st110{fill:#60441D;}
	.st111{opacity:0.5;}
	.st112{opacity:0.6;}
	.st113{opacity:0.8;}
	.st114{fill:#FFCE80;}
	.st115{fill:#FFEBBF;}
	.st116{fill:#FFEEA5;}
	.st117{fill:#FFFFFA;}
	.st118{fill:#FFFFFF;}
	.st119{fill:#644421;}
	.st120{fill:none;}
	.st121{fill:#65A844;}
	.st122{fill:#CB4645;}
	.st123{fill:#69C8CF;}
	.st124{fill:#CCCBCB;}
	.st125{fill:#30302F;}
	.st126{fill:#9F7534;}
	.st127{fill:#9F77AA;}
	.st128{fill:#CECECD;}
	.st129{fill:#CECFD0;}
	.st130{fill:#336C75;}
	.st131{fill:#343433;}
	.st132{fill:#344E5D;}
	.st133{fill:#353535;}
	.st134{fill:#357180;}
	.st135{fill:#377CA5;}
	.st136{fill:#383939;}
	.st137{fill-rule:evenodd;clip-rule:evenodd;fill:#97D6D5;}
	.st138{fill:#388388;}
	.st139{fill:#6E5538;}
	.st140{fill:#00A79E;}
	.st141{fill:#D0A288;}
	.st142{fill:#D0E8D0;}
	.st143{fill:#D1AF2B;}
	.st144{fill:#D2B488;}
	.st145{fill:#D2D2D2;}
	.st146{fill-rule:evenodd;clip-rule:evenodd;fill:#63AAA5;}
	.st147{fill:#D3B85F;}
	.st148{fill:#D3B95F;}
	.st149{fill:#D3D3D3;}
	.st150{fill:#D54027;}
	.st151{fill:#3AB780;}
	.st152{fill:#D5BA8A;}
	.st153{fill:#D62127;}
	.st154{fill:#D68936;}
	.st155{fill:#3CB881;}
	.st156{fill:#D7D7D7;}
	.st157{fill:#D7DABA;}
	.st158{fill:#D8D8D7;}
	.st159{fill:#714D22;}
	.st160{fill:#A0D9DC;}
	.st161{fill:#A2D4DE;}
	.st162{fill:#A46434;}
	.st163{fill:#A4A4A4;}
	.st164{fill:#A6A5A5;}
	.st165{fill:#DAA9A3;}
	.st166{fill:#DBBA33;}
	.st167{fill:#DBD3BB;}
	.st168{fill:#DBDDDC;}
	.st169{fill:#DCBF8D;}
	.st170{fill:#DCC172;}
	.st171{fill:#DCDFE0;}
	.st172{fill:#DDC272;}
	.st173{fill:#DDD2A5;}
	.st174{fill:#DDDDDC;}
	.st175{fill:#DDDFE0;}
	.st176{fill:#414141;}
	.st177{fill:#DFC191;}
	.st178{fill:#DFDDDC;}
	.st179{fill:#DFE0E0;}
	.st180{fill:#DFE0E1;}
]]>
</style>
<g>
	<g>
		<g>
			<circle class="st134" cx="68.417" cy="68.417" r="63.333"/>
		</g>
	</g>
	<g>
		<g>
			<g>
				<g>
					<path class="st141" d="M51.748,39.269c-1.546,0-2.8,0.555-2.8,2.102v24.088c0,1.545,1.254,2.798,2.8,2.798
						c1.545,0,2.797-1.253,2.797-2.798V41.37C54.545,39.823,53.293,39.269,51.748,39.269z"/>
				</g>
			</g>
			<g>
				<g class="st113">
					<g>
						<path class="st47" d="M50.277,30.525c0.529-1.519,0.427-3.813,0.427-3.813s5.07,3.858,4.709,8.641
							c-0.145,1.903-1.572,3.456-3.514,3.458c-1.941-0.002-3.514-1.548-3.514-3.458C48.385,33.495,49.654,32.315,50.277,30.525z"/>
					</g>
				</g>
				<g class="st113">
					<g>
						<path class="st118" d="M50.875,33.495c0.334-0.961,0.27-2.414,0.27-2.414s3.211,2.443,2.983,5.475
							c-0.091,1.207-0.997,2.189-2.227,2.19c-1.229-0.001-2.226-0.98-2.226-2.19C49.676,35.377,50.48,34.63,50.875,33.495z"/>
					</g>
				</g>
			</g>
		</g>
		<g>
			<g>
				<g>
					<path class="st141" d="M85.689,39.269c-1.545,0-2.798,0.555-2.798,2.102v24.088c0,1.545,1.253,2.798,2.798,2.798
						c1.546,0,2.798-1.253,2.798-2.798V41.37C88.487,39.823,87.235,39.269,85.689,39.269z"/>
				</g>
			</g>
			<g>
				<g class="st113">
					<g>
						<path class="st47" d="M83.976,30.525c0.529-1.519,0.427-3.813,0.427-3.813s5.07,3.858,4.709,8.641
							c-0.145,1.903-1.572,3.456-3.513,3.458c-1.942-0.002-3.515-1.548-3.515-3.458C82.084,33.495,83.354,32.315,83.976,30.525z"/>
					</g>
				</g>
				<g class="st113">
					<g>
						<path class="st118" d="M84.575,33.495c0.333-0.961,0.269-2.414,0.269-2.414s3.212,2.443,2.984,5.475
							c-0.091,1.207-0.997,2.189-2.227,2.19c-1.23-0.001-2.228-0.98-2.228-2.19C83.374,35.377,84.179,34.63,84.575,33.495z"/>
					</g>
				</g>
			</g>
		</g>
		<g>
			<g>
				<g>
					<path class="st141" d="M69.083,38.356c-1.545,0-2.799,0.555-2.799,2.101v24.087c0,1.547,1.254,2.8,2.799,2.8
						c1.546,0,2.797-1.253,2.797-2.8V40.457C71.881,38.911,70.629,38.356,69.083,38.356z"/>
				</g>
			</g>
			<g>
				<g class="st113">
					<g>
						<path class="st47" d="M67.553,29.553c0.529-1.519,0.427-3.813,0.427-3.813s5.069,3.859,4.708,8.641
							c-0.144,1.904-1.572,3.457-3.514,3.458c-1.94-0.001-3.513-1.548-3.513-3.458C65.661,32.522,66.929,31.343,67.553,29.553z"/>
					</g>
				</g>
				<g class="st113">
					<g>
						<path class="st118" d="M68.15,32.522c0.334-0.961,0.271-2.415,0.271-2.415s3.212,2.444,2.983,5.476
							c-0.091,1.206-0.996,2.188-2.226,2.189c-1.229-0.001-2.227-0.98-2.227-2.189C66.951,34.404,67.755,33.657,68.15,32.522z"/>
					</g>
				</g>
			</g>
		</g>
		<g>
			<g>
				<path class="st48" d="M35.874,84.726c9.304-10.539,11.27-9.644,21.289,0.053l0.204,0.196l0.146,0.241
					c0.511,0.827,2.373,3.181,4.187,3.181c0.018,0,0.035-0.001,0.053-0.001c1.36-0.035,2.915-1.523,4.378-4.191
					c0.527-0.896,4.981-9.287,10.683-9.287c0.064,0,0.128,0,0.192,0.002c3.022,0.086,5.576,3.235,7.591,7.146l0.096,0.212
					c0.459,1.163,1.92,3.641,3.494,3.84c1.253,0.156,2.937-1.121,4.734-3.604l0.175-0.213l10.028-10.719V60.804
					c0,0-32.517-13.139-69.379,0v26.062C34.526,86.146,35.241,85.442,35.874,84.726z"/>
			</g>
			<g>
				<path class="st12" d="M96.382,85.196c-2.838,3.877-5.796,5.643-8.765,5.263c-4.339-0.563-6.554-5.476-6.964-6.479
					c-0.847-1.619-2.174-3.512-3.772-3.561c-2.521-0.058-5.776,3.979-6.948,5.953c-2.279,4.159-5.015,7.212-8.093,7.279
					c-4.221,0.09-7.149-4.752-7.907-5.904c-3.925-3.774-6.209-5.256-7.848-5.125c-1.749,0.147-3.92,2.194-7.208,5.291
					c-1.427,1.346-3.128,2.945-5.135,4.706v11.743h69.379V77.991L96.382,85.196z"/>
			</g>
			<g>
				<path class="st20" d="M35.874,84.726c9.304-10.539,11.27-9.644,21.289,0.053l0.204,0.196l0.146,0.241
					c0.511,0.827,2.373,3.181,4.187,3.181c0.018,0,0.035-0.001,0.053-0.001c1.36-0.035,2.915-1.523,4.378-4.191
					c0.245-0.416,1.334-2.444,3.001-4.5c0.087-0.107-0.443-24.738-0.443-24.738c-10.412-0.055-22.429,1.377-34.946,5.838v26.062
					C34.526,86.146,35.241,85.442,35.874,84.726z"/>
			</g>
			<g>
				<path class="st169" d="M68.67,88.482c-2.003,3.043-4.3,5.114-6.83,5.169c-4.221,0.09-7.149-4.752-7.907-5.904
					c-3.925-3.774-6.209-5.256-7.848-5.125c-1.749,0.147-3.92,2.194-7.208,5.291c-1.427,1.346-3.128,2.945-5.135,4.706v11.743
					l34.897-0.156L68.67,88.482z"/>
			</g>
			<g>
				<path class="st152" d="M33.742,104.11c0,0-0.392,4.139,1.555,5.477c1.387,0.953,17.293,1.471,33.204,1.506
					c15.91,0.035,31.823-0.411,33.222-1.385c1.521-1.058,1.399-5.346,1.399-5.346s-13.549-2.355-34.717-2.355
					S33.742,104.11,33.742,104.11z"/>
			</g>
			<g>
				<path class="st144" d="M33.742,104.11c0,0-0.392,4.139,1.555,5.477c1.387,0.953,17.433,1.471,33.343,1.506v-9.086
					C47.472,102.007,33.742,104.11,33.742,104.11z"/>
			</g>
			<g>
				<path class="st177" d="M46.085,81.206c1.639-0.13,3.923,1.351,7.848,5.126c0.758,1.152,3.687,5.993,7.907,5.905
					c3.079-0.068,5.814-3.121,8.093-7.281c1.172-1.975,4.427-6.011,6.948-5.952c1.598,0.048,2.925,1.94,3.772,3.561
					c0.41,1.003,2.625,5.917,6.964,6.479c2.968,0.381,5.927-1.387,8.765-5.264l6.739-7.204v-6.411L93.093,80.886l-0.175,0.211
					c-1.797,2.482-3.48,3.761-4.734,3.604c-1.574-0.199-3.035-2.676-3.494-3.839l-0.096-0.213c-2.015-3.909-4.569-7.06-7.591-7.145
					c-0.063-0.002-0.127-0.003-0.192-0.003c-5.702,0-10.155,8.392-10.683,9.287c-1.463,2.669-3.018,4.157-4.378,4.192
					c-0.018,0-0.035,0.001-0.053,0.001c-1.813,0-4.536-3.619-4.536-3.619c-10.02-9.695-11.985-10.592-21.289-0.053
					c-0.633,0.717-1.348,1.422-2.132,2.141v5.754c2.007-1.762,3.708-3.361,5.135-4.706C42.165,83.399,44.336,81.354,46.085,81.206z"
					/>
			</g>
			<g>
				<path class="st117" d="M46.085,82.622c1.639-0.131,3.923,1.351,7.848,5.125c0.758,1.152,3.687,5.994,7.907,5.904
					c3.079-0.067,5.814-3.12,8.093-7.279c1.172-1.975,4.427-6.011,6.948-5.953c1.598,0.049,2.925,1.941,3.772,3.561
					c0.41,1.004,2.625,5.917,6.964,6.479c2.968,0.38,5.927-1.386,8.765-5.263l6.739-7.205v-6.41L93.093,82.3l-0.175,0.213
					c-1.797,2.482-3.48,3.76-4.734,3.604c-1.574-0.199-3.035-2.677-3.494-3.84l-0.096-0.212c-2.015-3.91-4.569-7.06-7.591-7.146
					c-0.063-0.002-0.127-0.002-0.192-0.002c-5.702,0-10.155,8.391-10.683,9.287c-1.463,2.668-3.018,4.156-4.378,4.191
					c-0.018,0-0.035,0.001-0.053,0.001c-1.813,0-4.536-3.618-4.536-3.618c-9.715-9.939-11.985-10.592-21.289-0.053
					c-0.633,0.717-1.348,1.421-2.132,2.14v5.754c2.007-1.761,3.708-3.36,5.135-4.706C42.165,84.816,44.336,82.77,46.085,82.622z"/>
			</g>
			<g>
				<path class="st177" d="M103.121,64.086v-3.282c0,0-32.517-13.139-69.379,0v3.282c0,0,17.493-4.743,33.917-4.743
					C84.082,59.343,103.121,64.086,103.121,64.086z"/>
			</g>
		</g>
	</g>
</g>
</svg>
