<?xml version="1.0" encoding="utf-8"?>
<!-- Generator: Adobe Illustrator 16.0.0, SVG Export Plug-In . SVG Version: 6.00 Build 0)  -->
<!DOCTYPE svg PUBLIC "-//W3C//DTD SVG 1.1//EN" "http://www.w3.org/Graphics/SVG/1.1/DTD/svg11.dtd">
<svg version="1.1" id="Layer_1" xmlns="http://www.w3.org/2000/svg" xmlns:xlink="http://www.w3.org/1999/xlink" x="0px" y="0px"
	 width="512px" height="512px" viewBox="0 0 512 512" style="enable-background:new 0 0 512 512;" xml:space="preserve">
<style type="text/css">
<![CDATA[
	.st0{fill:#AA0404;}
	.st1{fill:#48A1AF;}
	.st2{fill:#7F7F7F;}
	.st3{fill:#117F11;}
	.st4{fill:#117F4A;}
	.st5{fill:#E03636;}
	.st6{fill:#E09F65;}
	.st7{fill:#E0E0E2;}
	.st8{fill:#E1C821;}
	.st9{fill:#E22424;}
	.st10{fill:#E2E2E2;}
	.st11{fill:#E55151;}
	.st12{fill:#4ABC96;}
	.st13{fill:#4C4642;}
	.st14{fill:#4C4C4C;}
	.st15{fill:#4D5051;}
	.st16{fill:#E9C29C;}
	.st17{fill:#828282;}
	.st18{fill:#B23FA7;}
	.st19{fill:#1C2D35;}
	.st20{fill:#1D991D;}
	.st21{fill:#EDC92C;}
	.st22{fill:#EDC92F;}
	.st23{fill:#1FAF1B;}
	.st24{fill:#EFEDED;}
	.st25{fill:#54A35B;}
	.st26{fill:#BA7C49;}
	.st27{fill:#57C457;}
	.st28{fill:#595958;}
	.st29{fill:#BFAFA5;}
	.st30{fill:#F0F2F2;}
	.st31{fill:#F26B6B;}
	.st32{fill:#F2B42C;}
	.st33{fill:#F37C2A;}
	.st34{fill:#F4E028;}
	.st35{fill:#F4F4F4;}
	.st36{fill:#5C5F60;}
	.st37{fill:none;stroke:#E1C821;stroke-width:0.2351;stroke-miterlimit:10;}
	.st38{fill:#F9DF6E;}
	.st39{fill:#F9F29A;}
	.st40{fill:#C10505;}
	.st41{fill:#C1BDBC;}
	.st42{fill:#C61717;}
	.st43{fill:#C6854A;}
	.st44{fill:#C6B8AF;}
	.st45{fill:#999999;}
	.st46{fill:#FFFAFA;}
	.st47{fill:#FFFFFF;}
	.st48{fill:#63BD6E;}
	.st49{fill:#685B51;}
	.st50{fill:#CCAA05;}
	.st51{fill:#307530;}
	.st52{fill:#CE2E2E;}
	.st53{fill:#CEC0B7;}
	.st54{fill:#333333;}
	.st55{fill:#334D5C;}
	.st56{fill:#343433;}
	.st57{fill:#357157;}
	.st58{fill:#398764;}
	.st59{fill:#3A3A3A;}
	.st60{fill:#D61E1E;}
	.st61{fill:#D69021;}
	.st62{fill:#084C84;}
	.st63{fill:#D89450;}
	.st64{fill:#D8D8D8;}
	.st65{fill:#D8DBBA;}
	.st66{fill:#3E60B5;}
	.st67{fill:#703D2A;}
	.st68{fill:#A3D5E0;}
	.st69{fill:#A46434;}
	.st70{fill:#7597DB;}
	.st71{fill:#A56C42;}
	.st72{fill:#DAC425;}
	.st73{fill:#0E62A8;}
	.st74{fill:#DDDBDB;}
	.st75{fill:#415E6D;}
	.st76{fill:#427C99;}
	.st77{fill:#444040;}
	.st78{fill:#444647;}
	.st79{fill:#45A445;}
]]>
</style>
<g>
	<g>
		<g>
			<path class="st12" d="M256.003,7.924c-137.012,0-248.082,111.06-248.082,248.082c0,137.001,111.07,248.07,248.082,248.07
				c137.006,0,248.076-111.069,248.076-248.07C504.079,118.983,393.009,7.924,256.003,7.924z"/>
		</g>
	</g>
	<g>
		<g>
			<g>
				<g>
					<path class="st7" d="M392.07,176.97c-4.687-8.149-9.8-9.907-16.064-13.437l-105.935-49.506c-7.717-3.603-20.225-3.603-27.939,0
						l-105.936,49.506c-8.31,4.702-13.423,8.962-16.619,14.715c-3.196,5.752-4.048,12.57-4.936,22.791v130.686
						c0,9.517,7.173,13.343,14.386,17.233l109.092,48.828c0.477,0,11.846,2.889,18.238,2.889s17.526-2.889,17.526-2.889
						l109.092-48.828c6.966-3.57,14.386-7.716,14.386-17.233V201.04C397.13,191.032,396.56,184.776,392.07,176.97z"/>
				</g>
			</g>
			<g>
				<g>
					<path class="st47" d="M238.873,233.559l-104.488-46.767c-7.61,0-13.779,7.391-13.779,16.506v125.171
						c0,9.115,6.001,12.765,13.779,16.506l104.488,46.767c7.61,0,13.779-7.391,13.779-16.506V258.777
						C252.651,249.662,248.06,238.373,238.873,233.559z"/>
				</g>
			</g>
			<g>
				<g>
					<path class="st47" d="M377.616,186.792l-104.488,46.767c-8.036,4.813-13.779,16.103-13.779,25.218v116.459
						c0,9.115,6.169,16.506,13.779,16.506l104.488-46.767c7.21-3.422,13.779-7.391,13.779-16.506V203.298
						C391.395,194.183,385.226,186.792,377.616,186.792z"/>
				</g>
			</g>
			<g>
				<g>
					<path class="st47" d="M370.942,167.375l-101.465-47.417c-7.391-3.452-19.372-3.452-26.761,0l-101.465,47.417
						c-7.389,3.456-7.39,9.054,0,12.509l101.465,47.415c7.389,3.455,19.371,3.455,26.761,0l101.465-47.415
						C378.331,176.429,378.331,170.83,370.942,167.375z"/>
				</g>
			</g>
			<g>
				<g>
					<g>
						
							<ellipse transform="matrix(0.9646 -0.2638 0.2638 0.9646 -70.5784 108.2408)" class="st45" cx="367.684" cy="316.879" rx="14.341" ry="15.223"/>
					</g>
				</g>
				<g>
					<g>
						
							<ellipse transform="matrix(0.9646 -0.2638 0.2638 0.9646 -65.4882 96.6778)" class="st45" cx="327.197" cy="292.158" rx="14.341" ry="15.223"/>
					</g>
				</g>
				<g>
					<g>
						
							<ellipse transform="matrix(0.9646 -0.2638 0.2638 0.9646 -60.4017 85.1226)" class="st45" cx="286.71" cy="267.437" rx="14.342" ry="15.221"/>
					</g>
				</g>
			</g>
		</g>
		<g>
			<g>
				<g>
					<ellipse class="st45" cx="193.931" cy="168.022" rx="17.896" ry="10.653"/>
				</g>
			</g>
			<g>
				<g>
					<ellipse class="st45" cx="250.177" cy="143.734" rx="17.896" ry="10.653"/>
				</g>
			</g>
			<g>
				<g>
					<ellipse class="st45" cx="265.517" cy="200.619" rx="17.896" ry="10.653"/>
				</g>
			</g>
			<g>
				<g>
					<ellipse class="st45" cx="321.763" cy="176.331" rx="17.896" ry="10.653"/>
				</g>
			</g>
			<g>
				<g>
					<ellipse class="st45" cx="229.724" cy="184.64" rx="17.896" ry="10.653"/>
				</g>
			</g>
			<g>
				<g>
					<ellipse class="st45" cx="285.97" cy="160.352" rx="17.896" ry="10.653"/>
				</g>
			</g>
		</g>
		<g>
			<g>
				
					<ellipse transform="matrix(0.9555 -0.2949 0.2949 0.9555 -62.3373 54.9029)" class="st45" cx="150.895" cy="234.168" rx="14.196" ry="15.369"/>
			</g>
		</g>
		<g>
			<g>
				
					<ellipse transform="matrix(0.9555 -0.2949 0.2949 0.9555 -66.533 76.7849)" class="st45" cx="221.356" cy="259.019" rx="14.196" ry="15.37"/>
			</g>
		</g>
		<g>
			<g>
				
					<ellipse transform="matrix(0.9555 -0.2949 0.2949 0.9555 -88.1532 56.6948)" class="st45" cx="143.926" cy="320.667" rx="14.196" ry="15.369"/>
			</g>
		</g>
		<g>
			<g>
				
					<ellipse transform="matrix(0.9555 -0.2949 0.2949 0.9555 -77.438 66.3886)" class="st45" cx="181.425" cy="289.978" rx="14.196" ry="15.37"/>
			</g>
		</g>
		<g>
			<g>
				
					<ellipse transform="matrix(0.9555 -0.2948 0.2948 0.9555 -92.5445 78.5158)" class="st45" cx="214.104" cy="346.157" rx="14.196" ry="15.37"/>
			</g>
		</g>
	</g>
</g>
</svg>
