<?xml version="1.0" encoding="utf-8"?>
<!-- Generator: Adobe Illustrator 16.0.0, SVG Export Plug-In . SVG Version: 6.00 Build 0)  -->
<!DOCTYPE svg PUBLIC "-//W3C//DTD SVG 1.1//EN" "http://www.w3.org/Graphics/SVG/1.1/DTD/svg11.dtd">
<svg version="1.1" id="Layer_1" xmlns="http://www.w3.org/2000/svg" xmlns:xlink="http://www.w3.org/1999/xlink" x="0px" y="0px"
	 width="136.913px" height="136.913px" viewBox="0 0 136.913 136.913" enable-background="new 0 0 136.913 136.913"
	 xml:space="preserve">
<g>
	<g>
		<g>
			<circle fill="#357180" cx="68.456" cy="68.457" r="63.333"/>
		</g>
	</g>
	<g>
		<g>
			<g>
				<g>
					<polygon fill="#85C88E" points="109.975,98.949 91.441,95.191 56.379,106.461 27.326,98.949 27.326,34.334 55.377,41.846 
						91.441,30.576 109.975,34.334 					"/>
				</g>
				<g>
					<polygon fill="#71C176" points="106.701,95.035 89.637,91.576 89.637,34.334 106.701,37.793 					"/>
				</g>
				<g>
					<polygon fill="#57BA68" points="89.637,91.576 57.352,101.953 56.428,44.711 89.637,34.334 					"/>
				</g>
				<g>
					<polygon fill="#6CC077" points="57.352,101.953 30.6,95.035 30.6,37.793 56.428,44.711 					"/>
				</g>
				<g>
					<path fill="#F3F2F2" d="M53.498,100.92L30.6,94.707V72.111c0,0,8.436-5.596,18.295-5.998s23.482,1.066,22.072,11.328
						C69.559,87.701,53.498,100.92,53.498,100.92z"/>
				</g>
				<g>
					<path fill="#67B8CB" d="M51.162,100.264L30.6,94.945V74.047c0,0,8.072-5.354,17.504-5.738
						c9.434-0.385,21.176-0.193,19.828,9.625S51.162,100.264,51.162,100.264z"/>
				</g>
				<g>
					<path fill="#5FADB5" d="M57.006,68.395c6.621,0.539,11.871,2.652,10.926,9.539c-0.777,5.666-6.096,12.23-10.58,16.768
						L57.006,68.395z"/>
				</g>
			</g>
		</g>
		<g>
			<g>
				<path fill="#FFFFFF" d="M92.543,72.375C89.291,49,103.961,41.045,106.701,39.773v-1.98l-0.838-0.17
					c-3.482,1.795-16.447,9.814-16.01,29.383c-1.375-2.545-3.162-5.461-5.789-8.822C71.512,42.113,34.217,58.143,30.6,59.75v2.602
					c5.205-2.25,40.674-16.879,51.689-2.779c4.057,5.189,5.969,9.135,7.656,12.615c2.936,6.057,5.816,11.055,16.756,16.609v-2.768
					C97.359,81.24,95.09,77.559,92.543,72.375z"/>
			</g>
		</g>
		<g>
			<g>
				<path fill="#DDDDDC" d="M106.701,39.773v-1.98l-0.838-0.17c-3.482,1.795-16.447,9.814-16.01,29.383
					c-1.375-2.545-3.162-5.461-5.789-8.822c-5.807-7.434-16.908-7.996-27.52-6.297l0.039,2.516
					c10.188-1.729,20.586-1.381,25.705,5.17c4.057,5.189,5.969,9.135,7.656,12.615c2.936,6.057,5.816,11.055,16.756,16.609v-2.768
					c-9.342-4.789-11.611-8.471-14.158-13.654C89.291,49,103.961,41.045,106.701,39.773z"/>
			</g>
			<g>
				<path fill="#F3F2F2" d="M30.6,59.75v2.602c2.787-1.203,14.246-5.955,25.984-7.949l-0.039-2.516
					C44.215,53.859,32.545,58.887,30.6,59.75z"/>
			</g>
		</g>
		<g>
			<g>
				<path fill="#F3F2F2" d="M105.863,37.623c-3.482,1.795-16.447,9.814-16.01,29.383c-0.07-0.129-0.145-0.262-0.217-0.393v4.939
					c0.104,0.213,0.205,0.424,0.309,0.635c2.936,6.057,5.816,11.055,16.756,16.609v-2.768c-9.342-4.789-11.611-8.471-14.158-13.654
					C89.291,49,103.961,41.045,106.701,39.773v-1.98L105.863,37.623z"/>
			</g>
		</g>
		<g>
			<g>
				<g>
					<path fill="#EED22F" d="M76.873,53.902c-4.76,0-8.619,3.859-8.619,8.619c0,6.27,8.135,14.652,8.867,14.652
						c0.73,0,8.371-9.121,8.371-14.652C85.492,57.762,81.635,53.902,76.873,53.902z M76.832,65.402
						c-1.867,0-3.381-1.473-3.381-3.291s1.514-3.293,3.381-3.293c1.869,0,3.383,1.475,3.383,3.293S78.701,65.402,76.832,65.402z"/>
				</g>
				<g>
					<path fill="#E4B422" d="M77.121,77.674c-1.096,0-9.367-8.725-9.367-15.152c0-5.029,4.092-9.119,9.119-9.119
						c5.029,0,9.119,4.09,9.119,9.119C85.992,67.854,78.48,77.674,77.121,77.674z M76.873,54.402c-4.477,0-8.119,3.643-8.119,8.119
						c0,5.666,7.004,13.213,8.352,14.1c1.229-0.949,7.887-9.047,7.887-14.1C84.992,58.045,81.352,54.402,76.873,54.402z
						 M76.832,65.902c-2.141,0-3.881-1.701-3.881-3.791c0-2.092,1.74-3.793,3.881-3.793s3.883,1.701,3.883,3.793
						C80.715,64.201,78.973,65.902,76.832,65.902z M76.832,59.318c-1.588,0-2.881,1.252-2.881,2.793
						c0,1.539,1.293,2.791,2.881,2.791c1.59,0,2.883-1.252,2.883-2.791C79.715,60.57,78.422,59.318,76.832,59.318z"/>
				</g>
			</g>
		</g>
	</g>
</g>
</svg>
