<?xml version="1.0" encoding="utf-8"?>
<!-- Generator: Adobe Illustrator 16.0.0, SVG Export Plug-In . SVG Version: 6.00 Build 0)  -->
<!DOCTYPE svg PUBLIC "-//W3C//DTD SVG 1.1//EN" "http://www.w3.org/Graphics/SVG/1.1/DTD/svg11.dtd">
<svg version="1.1" id="Layer_1" xmlns="http://www.w3.org/2000/svg" xmlns:xlink="http://www.w3.org/1999/xlink" x="0px" y="0px"
	 width="136.833px" height="136.833px" viewBox="0 0 136.833 136.833" style="enable-background:new 0 0 136.833 136.833;"
	 xml:space="preserve">
<style type="text/css">
<![CDATA[
	.st0{fill:#7A430B;}
	.st1{fill:#AA9A83;}
	.st2{fill:#AC4736;}
	.st3{fill:#499544;}
	.st4{fill:#7D3719;}
	.st5{fill:#AD842D;}
	.st6{fill:#AE8032;}
	.st7{fill:#AF5E27;}
	.st8{fill:#E0A925;}
	.st9{fill:#E0E0E0;}
	.st10{fill:#E1544A;}
	.st11{fill:#E1B623;}
	.st12{fill:#E37926;}
	.st13{fill:#E3DFC6;}
	.st14{fill:#E3E4E5;}
	.st15{fill:#E48225;}
	.st16{fill:#E4C88F;}
	.st17{fill:#E54526;}
	.st18{fill:#E55126;}
	.st19{fill:#4ABC96;}
	.st20{fill:#E5DBCF;}
	.st21{fill:#184166;}
	.st22{fill:#196935;}
	.st23{fill:#4D8741;}
	.st24{fill:#E89C23;}
	.st25{fill:#E8DADD;}
	.st26{fill:#E8EAEB;}
	.st27{fill:#E92C25;}
	.st28{fill:#E9683B;}
	.st29{fill:#E98F23;}
	.st30{fill:#E99323;}
	.st31{fill:#E9B14D;}
	.st32{fill:#E9D8CB;}
	.st33{fill:#E9EEEE;}
	.st34{fill:#B1C635;}
	.st35{fill:#B21F24;}
	.st36{opacity:0.25;}
	.st37{fill:#83B041;}
	.st38{fill:#846A35;}
	.st39{fill:#B3BB35;}
	.st40{fill:#85983A;}
	.st41{fill:#864F4F;}
	.st42{fill:#EA9F3C;}
	.st43{fill:#EAAE7A;}
	.st44{fill:#EAD760;}
	.st45{fill:#B73535;}
	.st46{fill:#B7567D;}
	.st47{fill:#B79051;}
	.st48{fill:#EB7623;}
	.st49{fill:#EB8123;}
	.st50{fill:#EB9682;}
	.st51{fill:#EB9C22;}
	.st52{fill:#1D9E49;}
	.st53{fill:#B88B3B;}
	.st54{fill:#B88C33;}
	.st55{fill:#EC1C24;}
	.st56{fill:#EC2224;}
	.st57{fill:#ECDE7A;}
	.st58{fill:#EDC92C;}
	.st59{fill:#EDEDED;}
	.st60{fill:#EEB760;}
	.st61{fill:#EEE26F;}
	.st62{fill:#EFCF8A;}
	.st63{fill:#EFCFA7;}
	.st64{fill:#EFEFEF;}
	.st65{fill:#EFF2F1;}
	.st66{fill:#543D18;}
	.st67{fill:#568D4D;}
	.st68{fill:#8B5122;}
	.st69{fill:#8BC53F;}
	.st70{fill:#BB6828;}
	.st71{fill:#BB9E70;}
	.st72{fill:#BDDA83;}
	.st73{fill:#BE6328;}
	.st74{fill:#8F8547;}
	.st75{fill:#F0A91E;}
	.st76{fill:#F0B234;}
	.st77{fill:#F1CE6A;}
	.st78{fill:#F1CF13;}
	.st79{fill:#F1E2A3;}
	.st80{fill:#F2BA2C;}
	.st81{fill:#F2CF3B;}
	.st82{fill:#F2E78A;}
	.st83{fill:#F2ECC6;}
	.st84{fill:#F37C2A;}
	.st85{fill:#F3B022;}
	.st86{fill:#F3C121;}
	.st87{fill:#F3C480;}
	.st88{fill:#F3E4CE;}
	.st89{fill:#F4BD1C;}
	.st90{fill:#F4CE9D;}
	.st91{fill:#264E6E;}
	.st92{fill:#F58721;}
	.st93{fill:#F5D1AF;}
	.st94{fill:#F5E11C;}
	.st95{fill:#F69220;}
	.st96{fill:#F6E6E8;}
	.st97{fill:#5C2A2A;}
	.st98{fill:#F7991F;}
	.st99{fill:#F7CC55;}
	.st100{fill:#F7E8DD;}
	.st101{fill:#F8DA02;}
	.st102{fill:#F8E37F;}
	.st103{fill:#F8F0E9;}
	.st104{fill:#F9A65C;}
	.st105{fill:#F9C74F;}
	.st106{fill:#F9C900;}
	.st107{fill:#F9CE82;}
	.st108{fill:#F9ECE0;}
	.st109{fill:#F9ECE4;}
	.st110{fill:#F9EDE4;}
	.st111{clip-path:url(#SVGID_2_);}
	.st112{clip-path:url(#SVGID_4_);}
	.st113{clip-path:url(#SVGID_6_);}
	.st114{clip-path:url(#SVGID_8_);}
	.st115{fill:#C13B3B;}
	.st116{fill:#C16028;}
	.st117{fill:#925A25;}
	.st118{fill:#C35328;}
	.st119{fill:#C42126;}
	.st120{fill:#952E25;}
	.st121{fill:#C4BEBA;}
	.st122{fill:#95C83D;}
	.st123{fill:#C6C3C2;}
	.st124{fill:#2CAEA1;}
	.st125{fill:#989897;}
	.st126{fill:#99B93C;}
	.st127{fill:#C9C9C9;}
	.st128{fill:#FDD300;}
	.st129{fill:#FDD600;}
	.st130{fill:#FDD842;}
	.st131{fill:#FDE500;}
	.st132{opacity:0.5;}
	.st133{opacity:0.6;}
	.st134{opacity:0.8;}
	.st135{fill:#FFDD4D;}
	.st136{fill:#FFEFAE;}
	.st137{fill:#FFFBF8;}
	.st138{fill:#FFFFFF;}
	.st139{fill:#CA2027;}
	.st140{fill:#CB7129;}
	.st141{fill:#CC3828;}
	.st142{fill:#9E4F23;}
	.st143{fill:#CECFD0;}
	.st144{fill:#CF4827;}
	.st145{fill:#39617D;}
	.st146{fill:#D1BAC0;}
	.st147{fill:#034F6D;}
	.st148{fill:#D2AE73;}
	.st149{fill:#D2B676;}
	.st150{fill:#D62127;}
	.st151{fill:#D62427;}
	.st152{fill:#D6AC60;}
	.st153{fill:#D6D0CC;}
	.st154{fill:#D7C527;}
	.st155{fill:#D7D7D7;}
	.st156{fill:#702313;}
	.st157{clip-path:url(#SVGID_10_);}
	.st158{clip-path:url(#SVGID_12_);}
	.st159{clip-path:url(#SVGID_14_);}
	.st160{clip-path:url(#SVGID_16_);}
	.st161{fill:#A31E22;}
	.st162{fill:#A46A28;}
	.st163{fill:#76692A;}
	.st164{fill:#DA1F26;}
	.st165{fill:#DB2F2C;}
	.st166{fill:#DBD0A1;}
	.st167{fill:#DBDDDC;}
	.st168{fill:#A81E22;}
	.st169{fill:#796027;}
	.st170{fill:#DC965F;}
	.st171{fill:#DD9328;}
	.st172{fill:#DD9454;}
	.st173{fill:#DDC97D;}
	.st174{fill:#DDDFE0;}
	.st175{fill:#DDE077;}
	.st176{fill:#DFE0E1;}
]]>
</style>
<g>
	<g>
		<g>
			<g>
				<g>
					<g>
						<circle class="st150" cx="68.417" cy="68.418" r="63.333"/>
					</g>
				</g>
			</g>
		</g>
	</g>
	<g>
		<g>
			<g>
				<g>
					<path class="st42" d="M68.776,19.652c-26.724,0-48.387,21.663-48.387,48.387c0,13.433,5.475,25.583,14.312,34.351
						l34.075-34.351v48.386c26.724,0,48.388-21.662,48.388-48.386C117.164,41.315,95.5,19.652,68.776,19.652z"/>
				</g>
			</g>
		</g>
		<g>
			<g>
				<g>
					<path class="st29" d="M68.776,22.952c-24.901,0-45.088,20.187-45.088,45.087c0,12.517,5.102,23.839,13.336,32.007
						l31.752-32.007v45.087c24.902,0,45.088-20.188,45.088-45.087C113.864,43.139,93.678,22.952,68.776,22.952z"/>
				</g>
			</g>
		</g>
		<g>
			<g>
				<g>
					<path class="st30" d="M68.776,24.051c-24.294,0-43.988,19.694-43.988,43.988c0,12.212,4.977,23.257,13.011,31.228
						l30.978-31.228v43.988c24.295,0,43.988-19.693,43.988-43.988C112.764,43.745,93.071,24.051,68.776,24.051z"/>
				</g>
			</g>
		</g>
		<g>
			<g>
				<g>
					<path class="st44" d="M68.771,26.289c-9.132-4.419-14.677,1.976-26.679,9.629C31.984,42.363,30.106,54.512,27,68.058
						c-1.174,5.127,2.822,10.161,2.748,14.928c-0.096,5.979,5.438,10.59,9.607,14.727l29.415-29.655v41.77
						c8.748-2.822,21.425-2.316,27.159-10.035c9.53-12.826,17.648-19.404,14.61-31.735c-4.798-19.474-6.822-26.274-17.31-33.861
						C86.356,29.221,77.519,30.521,68.771,26.289z"/>
				</g>
			</g>
		</g>
		<g>
			<g>
				<g>
					<path class="st102" d="M42.092,35.918C31.984,42.363,30.106,54.512,27,68.058c-1.174,5.127,2.822,10.161,2.748,14.928
						c-0.096,5.979,5.438,10.59,9.607,14.727l29.415-29.655v41.77C83.989,75.919,54.094,28.265,42.092,35.918z"/>
				</g>
			</g>
		</g>
		<g>
			<g>
				<g>
					
						<ellipse transform="matrix(0.9072 -0.4206 0.4206 0.9072 -27.3588 45.8721)" class="st56" cx="90.324" cy="84.965" rx="7.595" ry="6.614"/>
				</g>
			</g>
			<g>
				<g>
					<path class="st164" d="M93.878,80.888c0.499,1.072-1.542,2.064-4.078,3.24c-2.537,1.176-4.456,2.426-4.954,1.352
						s0.615-4.066,3.151-5.242C90.535,79.062,93.381,79.812,93.878,80.888z"/>
				</g>
			</g>
			<g>
				<g>
					<path class="st164" d="M95.475,84.332c0.498,1.074-0.871,3.51-3.408,4.688c-2.537,1.174-5.435,0.313-5.933-0.762
						s1.593-1.953,4.13-3.129C92.801,83.951,94.977,83.259,95.475,84.332z"/>
				</g>
			</g>
		</g>
		<g>
			<g>
				<g>
					<ellipse class="st56" cx="78.246" cy="34.652" rx="7.595" ry="6.615"/>
				</g>
			</g>
			<g>
				<g>
					<path class="st164" d="M83.186,32.447c0,1.186-2.266,1.227-5.063,1.227c-2.796,0-5.063,0.326-5.063-0.858
						c0-1.183,2.267-3.429,5.063-3.429C80.92,29.387,83.186,31.265,83.186,32.447z"/>
				</g>
			</g>
			<g>
				<g>
					<path class="st164" d="M83.186,36.246c0,1.185-2.266,2.817-5.063,2.817c-2.796,0-5.063-2.001-5.063-3.185
						c0-1.185,2.267-1.104,5.063-1.104C80.92,34.775,83.186,35.063,83.186,36.246z"/>
				</g>
			</g>
		</g>
		<g>
			<g>
				<g>
					
						<ellipse transform="matrix(-0.458 0.889 -0.889 -0.458 147.5374 31.8813)" class="st56" cx="64.049" cy="60.919" rx="6.474" ry="6.502"/>
				</g>
			</g>
			<g>
				<g>
					<path class="st164" d="M64.046,65.656c-1.034-0.534-0.185-2.27,0.907-4.39c1.092-2.117,1.691-3.983,2.727-3.45
						c1.033,0.533,2.111,3.264,1.02,5.383C67.608,65.317,65.081,66.189,64.046,65.656z"/>
				</g>
			</g>
			<g>
				<g>
					<path class="st164" d="M60.729,63.944c-1.036-0.533-1.578-2.985-0.485-5.104c1.093-2.119,3.726-2.937,4.761-2.403
						c1.034,0.534,0.078,2.215-1.014,4.332C62.898,62.891,61.762,64.477,60.729,63.944z"/>
				</g>
			</g>
		</g>
		<g>
			<g>
				<g>
					<path class="st161" d="M57.413,49.252c0,4.557-4.031,9.715-9.119,9.715c-5.085,0-9.209-3.692-9.209-8.248
						s4.124-8.248,9.209-8.248C53.381,42.471,57.413,44.697,57.413,49.252z"/>
				</g>
			</g>
			<g>
				<g>
					<path class="st45" d="M56.549,49.252c0,4.13-3.141,8.432-7.751,8.432c-4.609,0-8.851-2.836-8.851-6.965
						s3.737-7.475,8.346-7.475C52.905,43.244,56.549,45.123,56.549,49.252z"/>
				</g>
			</g>
			<g>
				<g>
					<path class="st115" d="M48.798,57.684c-4.609,0-8.851-2.836-8.851-6.965s3.737-7.475,8.346-7.475
						C52.905,43.244,53.409,57.684,48.798,57.684z"/>
				</g>
			</g>
		</g>
		<g>
			<g>
				<g>
					<path class="st161" d="M98.102,57.043c0,4.556-4.032,9.714-9.119,9.714c-5.086,0-9.209-3.692-9.209-8.248
						s4.123-8.249,9.209-8.249C94.07,50.26,98.102,52.486,98.102,57.043z"/>
				</g>
			</g>
			<g>
				<g>
					<path class="st45" d="M97.239,57.043c0,4.128-3.142,8.43-7.751,8.43s-8.851-2.834-8.851-6.964c0-4.129,3.736-7.476,8.346-7.476
						C93.593,51.033,97.239,52.912,97.239,57.043z"/>
				</g>
			</g>
			<g>
				<g>
					<path class="st115" d="M89.488,65.473c-4.609,0-8.851-2.834-8.851-6.964c0-4.129,3.736-7.476,8.346-7.476
						C93.593,51.033,94.097,65.473,89.488,65.473z"/>
				</g>
			</g>
		</g>
		<g>
			<g>
				<g>
					
						<ellipse transform="matrix(0.4169 0.9089 -0.9089 0.4169 97.2857 9.4492)" class="st56" cx="41.278" cy="80.552" rx="7.594" ry="6.615"/>
				</g>
			</g>
			<g>
				<g>
					<path class="st164" d="M45.341,84.125c-1.077,0.492-2.058-1.551-3.224-4.092c-1.166-2.543-2.408-4.467-1.331-4.959
						c1.075-0.494,4.062,0.631,5.229,3.172C47.18,80.789,46.417,83.63,45.341,84.125z"/>
				</g>
			</g>
			<g>
				<g>
					<path class="st164" d="M41.89,85.707c-1.077,0.494-3.506-0.885-4.672-3.428c-1.166-2.541-0.292-5.436,0.784-5.93
						s1.947,1.602,3.113,4.145C42.282,83.035,42.965,85.214,41.89,85.707z"/>
				</g>
			</g>
		</g>
		<g>
			<g>
				<g>
					<path class="st51" d="M65.935,123.574c-13.292,0-25.331-5.359-34.077-14.033l34.077-34.354V123.574z"/>
				</g>
			</g>
			<g>
				<g>
					<path class="st42" d="M31.858,109.541c8.746,8.674,20.785,14.033,34.077,14.033v-3.703
						c-12.106-0.451-23.076-5.346-31.322-13.109L31.858,109.541z"/>
				</g>
			</g>
			<g>
				<g>
					<path class="st102" d="M36.884,103.779c0,0,12.771,9.691,17.564,9.977c4.796,0.289,7.321,2.363,11.761,3.221l-0.274-41.789
						L36.884,103.779z"/>
				</g>
			</g>
		</g>
		<g>
			<g>
				<g>
					<path class="st161" d="M68.823,81.785c-0.016,0-0.031,0.002-0.047,0.002v0.775c0.016,0,0.031-0.004,0.047-0.004
						c4.609,0,8.255,1.879,8.255,6.008s-3.142,8.432-7.751,8.432c-0.185,0-0.367-0.012-0.551-0.021v1.303
						c0.016,0,0.031,0.002,0.047,0.002c5.086,0,9.117-5.16,9.117-9.715S73.909,81.785,68.823,81.785z"/>
				</g>
			</g>
			<g>
				<g>
					<path class="st45" d="M69.327,96.998c4.609,0,7.751-4.303,7.751-8.432s-3.646-6.008-8.255-6.008
						c-0.016,0-0.031,0.004-0.047,0.004v14.414C68.959,96.986,69.142,96.998,69.327,96.998z"/>
				</g>
			</g>
		</g>
		<g>
			<g>
				<g>
					<path class="st161" d="M57.819,96.951c0-4.115,3.713-7.451,8.3-7.473v-0.771c-5.064,0.021-9.164,3.703-9.164,8.244
						c0,4.543,4.1,8.225,9.164,8.246v-1.301C61.729,103.679,57.819,100.916,57.819,96.951z"/>
				</g>
			</g>
			<g>
				<g>
					<path class="st115" d="M57.819,96.951c0,3.965,3.91,6.729,8.3,6.945V89.478C61.532,89.5,57.819,92.835,57.819,96.951z"/>
				</g>
			</g>
		</g>
		<g>
			<g>
				<g>
					<path class="st163" d="M81.446,71.597c0,1.367-0.643,2.75-2.475,2.566c-1.511-0.152-2.862-1.563-2.383-2.84
						c0.551-1.467,0.863-2.108,2.383-2.108C80.489,69.216,81.446,70.232,81.446,71.597z"/>
				</g>
			</g>
			<g>
				<g>
					<path class="st74" d="M79.674,72.57c-0.496,0.371-1.172,0.512-1.602-0.203c-0.354-0.59-0.207-1.463,0.388-1.635
						c0.681-0.197,0.999-0.258,1.409,0.295C80.282,71.578,80.171,72.201,79.674,72.57z"/>
				</g>
			</g>
		</g>
		<g>
			<g>
				<g>
					<path class="st163" d="M78.696,49.236c0,1.367-0.642,2.749-2.475,2.566c-1.511-0.15-2.862-1.563-2.382-2.842
						c0.55-1.465,0.864-2.106,2.382-2.106C77.741,46.854,78.696,47.87,78.696,49.236z"/>
				</g>
			</g>
			<g>
				<g>
					<path class="st74" d="M76.925,50.209c-0.497,0.37-1.173,0.512-1.603-0.203c-0.354-0.591-0.207-1.463,0.389-1.635
						c0.682-0.198,0.999-0.258,1.41,0.295C77.532,49.218,77.422,49.84,76.925,50.209z"/>
				</g>
			</g>
		</g>
		<g>
			<g>
				<g>
					<path class="st97" d="M53.861,70.132c0,1.365-0.642,2.748-2.475,2.564c-1.511-0.15-2.862-1.563-2.382-2.842
						c0.55-1.465,0.863-2.105,2.382-2.105S53.861,68.764,53.861,70.132z"/>
				</g>
			</g>
			<g>
				<g>
					<path class="st41" d="M52.09,71.103c-0.496,0.371-1.174,0.512-1.602-0.205c-0.355-0.588-0.207-1.461,0.387-1.633
						c0.682-0.196,1-0.257,1.41,0.293C52.697,70.113,52.586,70.734,52.09,71.103z"/>
				</g>
			</g>
		</g>
		<g>
			<g>
				<g>
					<path class="st97" d="M61.87,35.225c-1.199,0.658-2.72,0.76-3.44-0.934c-0.595-1.397-0.008-3.262,1.345-3.455
						c1.549-0.225,2.264-0.258,2.994,1.074S63.067,34.568,61.87,35.225z"/>
				</g>
			</g>
			<g>
				<g>
					<path class="st41" d="M60.165,34.141c-0.563-0.258-1.012-0.781-0.592-1.502c0.348-0.595,1.184-0.885,1.62-0.445
						c0.5,0.5,0.706,0.75,0.419,1.377C61.326,34.195,60.727,34.398,60.165,34.141z"/>
				</g>
			</g>
		</g>
		<g>
			<g>
				<g>
					<path class="st97" d="M104.575,71.15c-1.198,0.656-2.719,0.758-3.441-0.936c-0.594-1.398-0.007-3.261,1.346-3.457
						c1.549-0.223,2.263-0.256,2.994,1.076C106.204,69.165,105.772,70.492,104.575,71.15z"/>
				</g>
			</g>
			<g>
				<g>
					<path class="st41" d="M102.87,70.064c-0.564-0.258-1.012-0.782-0.592-1.501c0.347-0.594,1.184-0.886,1.619-0.447
						c0.501,0.502,0.705,0.752,0.42,1.376C104.031,70.119,103.432,70.322,102.87,70.064z"/>
				</g>
			</g>
		</g>
		<g>
			<g>
				<g>
					<path class="st163" d="M47.965,101.427c0,1.367-0.643,2.75-2.475,2.566c-1.512-0.15-2.863-1.561-2.383-2.84
						c0.549-1.465,0.864-2.107,2.383-2.107C47.008,99.046,47.965,100.062,47.965,101.427z"/>
				</g>
			</g>
			<g>
				<g>
					<path class="st74" d="M46.193,102.402c-0.496,0.369-1.172,0.51-1.602-0.205c-0.353-0.59-0.208-1.465,0.388-1.635
						c0.682-0.197,1-0.256,1.41,0.295C46.8,101.408,46.69,102.033,46.193,102.402z"/>
				</g>
			</g>
		</g>
		<g>
			<g>
				<g>
					<path class="st97" d="M88.319,98.906c0,1.367-0.643,2.75-2.475,2.566c-1.512-0.15-2.863-1.563-2.383-2.842
						c0.55-1.465,0.863-2.107,2.383-2.107C87.362,96.523,88.319,97.541,88.319,98.906z"/>
				</g>
			</g>
			<g>
				<g>
					<path class="st41" d="M86.547,99.878c-0.496,0.371-1.173,0.512-1.603-0.203c-0.354-0.59-0.206-1.465,0.388-1.635
						c0.682-0.197,1-0.258,1.41,0.295C87.154,98.888,87.043,99.509,86.547,99.878z"/>
				</g>
			</g>
		</g>
		<g>
			<g>
				<g>
					<path class="st163" d="M36.65,59.613c0,1.367-0.642,2.75-2.475,2.566c-1.511-0.15-2.862-1.561-2.383-2.841
						c0.55-1.468,0.864-2.108,2.383-2.108S36.65,58.247,36.65,59.613z"/>
				</g>
			</g>
			<g>
				<g>
					<path class="st74" d="M34.877,60.586c-0.496,0.371-1.171,0.512-1.602-0.205c-0.354-0.588-0.207-1.461,0.389-1.633
						c0.682-0.198,0.999-0.258,1.41,0.295C35.485,59.596,35.375,60.217,34.877,60.586z"/>
				</g>
			</g>
		</g>
	</g>
</g>
</svg>
