<?xml version="1.0" encoding="utf-8"?>
<!-- Generator: Adobe Illustrator 16.0.0, SVG Export Plug-In . SVG Version: 6.00 Build 0)  -->
<!DOCTYPE svg PUBLIC "-//W3C//DTD SVG 1.1//EN" "http://www.w3.org/Graphics/SVG/1.1/DTD/svg11.dtd">
<svg version="1.1" id="Layer_1" xmlns="http://www.w3.org/2000/svg" xmlns:xlink="http://www.w3.org/1999/xlink" x="0px" y="0px"
	 width="136.833px" height="136.833px" viewBox="0 0 136.833 136.833" style="enable-background:new 0 0 136.833 136.833;"
	 xml:space="preserve">
<style type="text/css">
<![CDATA[
	.st0{fill:#AAA79B;}
	.st1{fill:#AAAAAA;}
	.st2{fill:#49A0AE;}
	.st3{fill:#AD9030;}
	.st4{fill:#AE7B3E;}
	.st5{fill:#117F4A;}
	.st6{fill:#E03740;}
	.st7{opacity:0.15;fill:#F0EFED;}
	.st8{fill:#E13B3B;}
	.st9{fill:#E1C821;}
	.st10{fill:#E1DEDB;}
	.st11{fill:#E2C448;}
	.st12{fill:#E34F50;}
	.st13{fill:#4ABC96;}
	.st14{fill:#E5E5E5;}
	.st15{fill:#E7E7E7;}
	.st16{fill:#E84849;}
	.st17{fill:#E8E4AA;}
	.st18{fill:#E9C11E;}
	.st19{fill:#E9E9EA;}
	.st20{fill:#B19353;}
	.st21{clip-path:url(#SVGID_2_);fill:#AAAAAA;}
	.st22{fill:#B29C76;}
	.st23{fill:#838383;}
	.st24{fill:#B2B0A6;}
	.st25{fill:#B2B2B2;}
	.st26{fill:#B4B4B5;}
	.st27{fill:#867257;}
	.st28{fill:#86847D;}
	.st29{fill:#1B7A9A;}
	.st30{fill:#B6B3A1;}
	.st31{fill:#B6B6B7;}
	.st32{fill:#B6C2CB;}
	.st33{fill:#1C4C51;}
	.st34{fill:#888888;}
	.st35{fill:#EB9682;}
	.st36{fill:#898579;}
	.st37{fill:#B8D4D8;}
	.st38{fill:#ECE17E;}
	.st39{fill:#B9972F;}
	.st40{fill:#B9A57C;}
	.st41{fill:#B9B9BA;}
	.st42{fill:#EDC92C;}
	.st43{fill:#EDEBE7;}
	.st44{fill:#525252;}
	.st45{opacity:0.15;fill:#FFFFFF;}
	.st46{fill:#565453;}
	.st47{fill:#575656;}
	.st48{fill-rule:evenodd;clip-rule:evenodd;fill:#4B4A4B;}
	.st49{clip-path:url(#SVGID_4_);fill:#AAAAAA;}
	.st50{fill:#BAE2DD;}
	.st51{fill:#BBBCBB;}
	.st52{fill:#BDB36D;}
	.st53{fill:#202121;}
	.st54{clip-path:url(#SVGID_2_);fill:#1B7A9A;}
	.st55{fill:#239563;}
	.st56{fill:#F37C2A;}
	.st57{fill:#255860;}
	.st58{fill:#F3EED5;}
	.st59{fill:#F4E028;}
	.st60{fill:#F4F4EE;}
	.st61{fill:#5ABE8F;}
	.st62{fill:#F6F2E4;}
	.st63{fill:#5C5853;}
	.st64{fill:#5C5C5C;}
	.st65{fill-rule:evenodd;clip-rule:evenodd;fill:#EB6C25;}
	.st66{fill:#2992AD;}
	.st67{fill:#5E5F5E;}
	.st68{fill:#F9F29A;}
	.st69{clip-path:url(#SVGID_2_);}
	.st70{clip-path:url(#SVGID_4_);}
	.st71{fill:#C0BFBC;}
	.st72{fill:#C0C0C0;}
	.st73{fill:#C1914F;}
	.st74{fill:#93793D;}
	.st75{fill:#C3C3C3;}
	.st76{fill:#C3D5C7;}
	.st77{fill:#C4A830;}
	.st78{clip-path:url(#SVGID_4_);fill:#1B7A9A;}
	.st79{fill:#C698C5;}
	.st80{fill:#972627;}
	.st81{fill:#C6C5C5;}
	.st82{fill:#C74A39;}
	.st83{fill:#C84027;}
	.st84{opacity:0.1;}
	.st85{fill:#616161;}
	.st86{fill:#FFCE00;}
	.st87{fill:#FFF5F4;}
	.st88{fill:#FFFFFF;}
	.st89{fill:#63BD6E;}
	.st90{fill-rule:evenodd;clip-rule:evenodd;fill:#F37C2A;}
	.st91{fill:none;}
	.st92{fill:#65A844;}
	.st93{fill:#667580;}
	.st94{fill:#CAE8E4;}
	.st95{fill:#9C9C9C;}
	.st96{fill:#CBBD7D;}
	.st97{fill:#CC4028;}
	.st98{fill:#CCC375;}
	.st99{fill:#CCC788;}
	.st100{fill:#9DDAEC;}
	.st101{fill:#CDAB2D;}
	.st102{fill:#CDCCCB;}
	.st103{fill:#CDCDCE;}
	.st104{fill:#CDE7D5;}
	.st105{fill:#9F77AA;}
	.st106{fill:#CECBCB;}
	.st107{fill:#357180;}
	.st108{fill:#6BA297;}
	.st109{fill:#6EC2CB;}
	.st110{fill:#D0D1D1;}
	.st111{fill:#D1974F;}
	.st112{fill:#D1AFD2;}
	.st113{fill:#D22027;}
	.st114{fill:#D2B63D;}
	.st115{fill:#D2D2D2;}
	.st116{fill:#D32033;}
	.st117{clip-path:url(#SVGID_2_);fill:#CDCDCE;}
	.st118{fill:#D51F31;}
	.st119{fill:#D5C7C3;}
	.st120{fill:#D5D6D5;}
	.st121{fill:#3B3A38;}
	.st122{fill:#3B6DA2;}
	.st123{fill:#D6CB78;}
	.st124{fill:#D73D3D;}
	.st125{fill:#D7B029;}
	.st126{fill:#D8D8D7;}
	.st127{fill:#A03D3D;}
	.st128{fill:#A09592;}
	.st129{fill:#717171;}
	.st130{fill:#A19F9F;}
	.st131{fill:#727172;}
	.st132{fill:#F9F29A;stroke:#E1C821;stroke-miterlimit:10;}
	.st133{fill:#A2D1C9;}
	.st134{fill:#A33B3B;}
	.st135{fill:#A48A47;}
	.st136{fill:#DAC425;}
	.st137{fill:#786547;}
	.st138{fill:#787878;}
	.st139{fill:#A7A8A7;}
	.st140{fill-rule:evenodd;clip-rule:evenodd;fill:#6DABB5;}
	.st141{fill:#DCD99D;}
	.st142{fill:#DD5231;}
	.st143{clip-path:url(#SVGID_4_);fill:#CDCDCE;}
	.st144{fill:#DDDACA;}
	.st145{fill:#DDDCD6;}
	.st146{fill:#DDDDDC;}
	.st147{fill:#404040;}
	.st148{fill:#DEBA24;}
	.st149{fill:#DFBFDB;}
	.st150{fill:#DFD48A;}
	.st151{fill:#DFDFDF;}
	.st152{fill:#444545;}
	.st153{fill:#45423F;}
]]>
</style>
<g>
	<g>
		<circle class="st2" cx="68.417" cy="68.417" r="63.333"/>
		<g>
			<g>
				<g>
					<path class="st80" d="M64.567,34.467c0,0-7.842,4.227,2.271,13.045C66.839,47.512,50.108,38.979,64.567,34.467z"/>
					<g>
						<g>
							<path class="st12" d="M57.622,36.491c-2.725,4.955,7.975,11.715,7.975,11.715l1.242-0.693
								c-1.205-0.832-8.361-5.977-7.031-9.584c1.318-3.578,5.883-2.721,7.264,0.689c1.219,3.016,2.299,6.572,2.248,7.502l1.09-0.611
								c0,0,0.861-4.225-1.045-8.939C67.456,31.856,60.171,31.848,57.622,36.491z"/>
						</g>
					</g>
				</g>
				<g>
					<path class="st80" d="M76.323,35.543c0,0,6.951,4.643-1.895,14.713C74.429,50.256,89.114,40.415,76.323,35.543z"/>
					<g>
						<g>
							<path class="st12" d="M82.468,37.719c2.441,5.539-6.938,13.301-6.938,13.301l-1.102-0.764
								c1.055-0.953,7.324-6.846,6.123-10.885c-1.193-4.01-5.213-2.979-6.402,0.879c-1.049,3.41-1.973,7.432-1.92,8.475
								l-0.967-0.672c0,0-0.795-4.742,0.848-10.074S80.181,32.532,82.468,37.719z"/>
						</g>
					</g>
				</g>
				<g>
					<path class="st80" d="M73.558,29.034c0,0-10.789-0.045-5.133,15.613C68.425,44.647,55.563,25.366,73.558,29.034z"/>
					<g>
						<g>
							<path class="st12" d="M64.997,27.112C59.231,30.911,66.7,44.668,66.7,44.668l1.725-0.021
								c-0.801-1.625-5.438-11.508-1.936-14.66c3.475-3.129,7.836,0.525,7.33,5.074c-0.447,4.021-1.359,8.555-1.951,9.541
								l1.514-0.021c0,0,3.363-4.104,4.063-10.393S70.397,23.553,64.997,27.112z"/>
						</g>
					</g>
				</g>
				<g>
					<g>
						<g>
							<g>
								<path class="st12" d="M91.089,48.747c-3.799,5.766-17.557-1.703-17.557-1.703l0.021-1.725
									c1.625,0.801,11.328,5.27,14.66,1.938c1.109-1.111-1.539-7.27-5.074-7.332c-4.047-0.07-9.264,1.309-13.682,8.559
									l0.021-4.156c0,0,8.244-7.328,14.533-8.027S94.647,43.348,91.089,48.747z"/>
							</g>
						</g>
					</g>
					<path class="st80" d="M69.458,48.483c0,0,4.984-9.477,14.801-8.344c0,0-4.273-1.203-6.871-0.662
						c-1.359,0.283-5.607,2.549-7.908,4.85L69.458,48.483z"/>
				</g>
				<g>
					<g>
						<g>
							<g>
								<path class="st12" d="M50.347,50.559c4.744,5.016,16.992-4.732,16.992-4.732l-0.322-1.695
									c-1.461,1.072-10.238,7.16-14.1,4.459c-1.285-0.9,0.25-7.426,3.721-8.102c3.975-0.775,9.352-0.324,14.963,6.045
									l-0.744-4.088c0,0-9.395-5.781-15.709-5.375S45.901,45.862,50.347,50.559z"/>
							</g>
						</g>
					</g>
					<path class="st80" d="M71.601,46.534c0,0-6.557-8.465-16.027-5.641c0,0,4-1.928,6.652-1.848c1.387,0.043,5.965,1.535,8.631,3.4
						L71.601,46.534z"/>
				</g>
			</g>
			<path class="st151" d="M103.034,53.907H34.22c-1.182,0-2.141,0.959-2.141,2.143v38.557c0,1.182,0.959,2.141,2.141,2.141h34.338
				h0.141h34.336c1.184,0,2.141-0.959,2.141-2.141V56.049C105.175,54.868,104.218,53.907,103.034,53.907z"/>
			<path class="st102" d="M103.034,53.907H68.702l0.006,42.84h34.326c1.184,0,2.141-0.959,2.141-2.141V56.049
				C105.175,54.868,104.218,53.907,103.034,53.907z"/>
			<path class="st26" d="M105.38,51.428l-36.678-6.994v-0.029l-0.074,0.014l-0.076-0.014v0.029l-36.678,6.994
				c-1.262,0-2.287,1.023-2.287,2.287v6.752c0,1.262,1.025,2.287,2.287,2.287l36.754-7.01l36.752,7.01
				c1.264,0,2.287-1.023,2.287-2.287v-6.752C107.667,52.452,106.644,51.428,105.38,51.428z"/>
			<path class="st106" d="M107.667,59.221c0,1.264,0.076,2.363-0.83,2.287l-38.285-7.023V43.159l36.828,7.023
				c1.264,0,2.287,1.023,2.287,2.287V59.221z"/>
			<path class="st19" d="M29.587,52.469c0-1.264,1.025-2.287,2.287-2.287l36.828-7.023v11.326l-38.436,7.326
				c-0.68,0-0.68-1.328-0.68-2.59V52.469z"/>
			<g>
				<polygon class="st116" points="93.472,97.075 82.597,97.075 82.597,58.393 83.276,57.356 94.228,59.395 93.472,60.432 				"/>
				<polygon class="st113" points="82.597,58.393 83.276,57.356 94.228,59.395 93.472,60.43 				"/>
				<polygon class="st6" points="94.228,48.03 83.276,45.915 83.276,57.356 94.228,59.395 				"/>
			</g>
			<g>
				<polygon class="st12" points="43.313,97.075 54.187,97.075 54.187,58.452 53.507,57.356 42.558,59.393 43.313,60.489 				"/>
				<polygon class="st118" points="54.187,58.452 53.507,57.356 42.558,59.393 43.313,60.489 				"/>
				<polygon class="st12" points="42.558,48.143 53.534,46.047 53.507,57.356 42.558,59.393 				"/>
			</g>
		</g>
	</g>
</g>
</svg>
