<?xml version="1.0" encoding="utf-8"?>
<!-- Generator: Adobe Illustrator 16.0.0, SVG Export Plug-In . SVG Version: 6.00 Build 0)  -->
<!DOCTYPE svg PUBLIC "-//W3C//DTD SVG 1.1//EN" "http://www.w3.org/Graphics/SVG/1.1/DTD/svg11.dtd">
<svg version="1.1" id="Layer_1" xmlns="http://www.w3.org/2000/svg" xmlns:xlink="http://www.w3.org/1999/xlink" x="0px" y="0px"
	 width="512px" height="512px" viewBox="0 0 512 512" style="enable-background:new 0 0 512 512;" xml:space="preserve">
<style type="text/css">
<![CDATA[
	.st0{fill:#487206;}
	.st1{fill:#48A1AF;}
	.st2{fill:#ADDBA2;}
	.st3{fill:#7F7D77;}
	.st4{fill:#E05663;}
	.st5{fill:#AFA58C;}
	.st6{fill:#AFAFAE;}
	.st7{fill:#E0AF4C;}
	.st8{fill:#E0D1D1;}
	.st9{fill:#E0DFDC;}
	.st10{fill:#E0E2D9;}
	.st11{fill:#E17A2D;}
	.st12{fill:#E22929;}
	.st13{fill:#E2580C;}
	.st14{fill:#E2DDCF;}
	.st15{fill:#E2E1D9;}
	.st16{fill:#E2E2E0;}
	.st17{fill:#E2F0F2;}
	.st18{fill:#E53046;}
	.st19{fill:#4ABC96;}
	.st20{fill:#E5AA5C;}
	.st21{fill:#E79E2F;}
	.st22{fill:#E8546C;}
	.st23{fill:#E8B1A0;}
	.st24{fill:#E8CB70;}
	.st25{fill:#B24000;}
	.st26{fill:#845E35;}
	.st27{fill-rule:evenodd;clip-rule:evenodd;fill:#7ABC1B;}
	.st28{fill:#EA4949;}
	.st29{fill:#EAE7E1;}
	.st30{fill:#EAEFEF;}
	.st31{fill:#888988;}
	.st32{fill:#888989;}
	.st33{fill:#898479;}
	.st34{fill:#ED6B6B;}
	.st35{fill:#EDC92F;}
	.st36{fill:#EDC988;}
	.st37{fill:#EDD48E;}
	.st38{fill:#EDE362;}
	.st39{fill:#EE660E;}
	.st40{fill:#EF8989;}
	.st41{fill:#EFD565;}
	.st42{fill:#EFEDED;}
	.st43{fill:#EFEEE4;}
	.st44{fill:#BA8436;}
	.st45{fill:#BAB8B6;}
	.st46{fill:#BABAB6;}
	.st47{fill:#8D9696;}
	.st48{fill:#BF4013;}
	.st49{fill:#BFB599;}
	.st50{fill:#BFBFBE;}
	.st51{fill:#F2AD51;}
	.st52{fill:#F2B800;}
	.st53{fill:#F2F2F2;}
	.st54{fill:#F4D44E;}
	.st55{fill:#F4E028;}
	.st56{fill:#F4F4F4;}
	.st57{fill:#292A25;}
	.st58{fill:#F7F5F2;}
	.st59{fill:#29C183;}
	.st60{fill:#5F8E0E;}
	.st61{fill:#909191;}
	.st62{fill:#C16842;}
	.st63{fill:#C18111;}
	.st64{fill:#C1BFBF;}
	.st65{fill:#C6A206;}
	.st66{fill:#C6C5C4;}
	.st67{fill:#993504;}
	.st68{fill:#996511;}
	.st69{fill:#997141;}
	.st70{fill:#999282;}
	.st71{fill:#FCCF4F;}
	.st72{fill:#60737C;}
	.st73{fill:#FFFFFF;}
	.st74{fill:#644B44;}
	.st75{fill:#CACCCC;}
	.st76{fill:#CC8127;}
	.st77{fill:#CCC5B4;}
	.st78{fill:#CCCCCC;}
	.st79{fill:#9E9D86;}
	.st80{fill:#CE8320;}
	.st81{fill:#CE8C78;}
	.st82{fill:#CECECE;}
	.st83{fill:#9FA09F;}
	.st84{fill:#9FA3A3;}
	.st85{fill:#334D5C;}
	.st86{fill:#337180;}
	.st87{fill:#6B615D;}
	.st88{fill:#6E4832;}
	.st89{fill:#D1CD3B;}
	.st90{fill-rule:evenodd;clip-rule:evenodd;fill:#64A80D;}
	.st91{fill:#D3E1E2;}
	.st92{fill:#D4D8D8;}
	.st93{fill:#D61E1E;}
	.st94{fill:#D63434;}
	.st95{fill:#D6D6D0;}
	.st96{fill:#D7DBDB;}
	.st97{fill:#D88D2B;}
	.st98{fill:#D8D8D8;}
	.st99{fill:#3F3F3D;}
	.st100{fill:#705634;}
	.st101{fill:#727069;}
	.st102{fill:#72706B;}
	.st103{fill:#A3712F;}
	.st104{fill:#A54B2B;}
	.st105{fill-rule:evenodd;clip-rule:evenodd;fill:#6B9913;}
	.st106{fill:#DB9A83;}
	.st107{fill:#DBDBDB;}
	.st108{fill:#DDD7D7;}
	.st109{fill:#DDDDDD;}
	.st110{fill:#DFA17C;}
]]>
</style>
<g>
	<g>
		<g>
			<path class="st1" d="M256.003,7.924c-137.012,0-248.083,111.06-248.083,248.082c0,137.001,111.07,248.07,248.083,248.07
				c137.006,0,248.076-111.069,248.076-248.07C504.079,118.983,393.009,7.924,256.003,7.924z"/>
		</g>
	</g>
	<g>
		<g>
			<g>
				<g>
					<path class="st73" d="M355.099,401.511c-2.272-1.098-23.183-10.755-57.067-11.885c-0.128-0.016-0.262,0.044-0.358,0.134
						c-0.097,0.091-0.153,0.216-0.158,0.349l-0.175,5.246c-0.009,0.276,0.207,0.507,0.483,0.516
						c33.844,1.129,54.495,11.235,54.739,11.354l0.47,0.183c5.817,1.723,11.887,6.162,11.678,10.994
						c-0.144,3.324-3.759,11.725-34.163,17.944c-15.437,3.157-30.462,4.758-44.659,4.758c-34.504,0-58.866-9.496-73.226-17.462
						c-23.775-13.188-34.523-29.564-34.636-29.739c-30.465-44.642-32.959-86.036-29.688-112.899
						c3.639-29.873,15.287-50.824,18.891-54.682c6.967-7.455,15.046-11.073,24.042-10.736c25.032,0.922,49.732,31.252,49.979,31.558
						c0.173,0.214,0.488,0.249,0.703,0.076l4.09-3.29c0.215-0.173,0.249-0.488,0.076-0.703
						c-1.078-1.341-26.725-32.849-54.606-33.885c-10.888-0.4-20.599,3.884-28.85,12.713c-8.296,8.877-49.586,87.764,10.144,175.286
						c0.451,0.71,11.338,17.546,36.533,31.605c15.05,8.398,40.544,18.408,76.535,18.408h0.008c14.62,0,30.067-1.644,45.915-4.886
						c31.793-6.502,38.84-16.53,39.154-23.796C371.314,410.311,362.951,403.9,355.099,401.511z"/>
				</g>
			</g>
			<g>
				<g>
					<path class="st73" d="M272.599,454.254c-0.008-0.132-0.069-0.256-0.168-0.344c-0.099-0.088-0.231-0.13-0.362-0.124
						c-0.063,0.004-6.619,0.4-16.228,0.4c-22.507,0-62.258-2.158-75.611-16.611c-3.418-3.7-4.735-7.916-4.024-12.89
						c1.469-10.278,28.933-19.227,45.899-22.453c0.271-0.052,0.45-0.313,0.398-0.584l-0.979-5.157c-0.025-0.13-0.1-0.246-0.21-0.32
						c-0.11-0.075-0.247-0.104-0.375-0.078c-4.941,0.938-48.345,9.689-50.92,27.708c-0.98,6.856,0.911,12.918,5.62,18.016
						c14.999,16.233,56.461,18.657,79.842,18.657c9.569,0,16.25-0.404,16.98-0.45c0.276-0.018,0.485-0.255,0.468-0.53
						L272.599,454.254z"/>
				</g>
			</g>
			<g>
				<g>
					<path class="st94" d="M264.062,59.12c5.006-2.258,7.319-6.885,7.319-8.939h-27.103c0,2.026,2.257,6.552,7.124,8.842
						c-4.458,3.42-8.737,8.912-8.737,11.502c0,3.915,30.329,3.915,30.329,0C272.994,67.959,268.483,62.546,264.062,59.12z"/>
				</g>
			</g>
			<g>
				<g>
					<path class="st28" d="M244.278,50.18c0,2.026,2.257,6.552,7.124,8.842c-4.458,3.42-8.737,8.912-8.737,11.502
						c0,1.958,7.583,2.936,15.165,2.936l0.001-23.281H244.278z"/>
				</g>
			</g>
			<g>
				<g>
					<path class="st35" d="M286.555,65.127h-57.449c0,3.388,6.671,11.739,21.326,13.924c-4.088,3.426-7.766,8.32-7.766,10.722
						c0,1.591,5.013,2.536,10.963,2.833c0.636,0.032,0.836,8.052,1.384,14.785c-3.366,0.545-5.786,2.035-5.786,3.794
						c0,0.861,0.583,1.656,1.569,2.31c-2.944,2.246-4.863,5.854-4.863,9.938c0,4.745,2.583,8.857,6.365,10.922
						c-1.876,0.737-3.07,1.84-3.07,3.076c0,1.494,1.748,2.794,4.335,3.487c-4.083,2.756-6.96,10.146-6.96,24.402
						c0,13.903,2.735,30.424,6.658,38.146c-3.922,3.812-6.658,11.966-6.658,18.828c0,6.141,2.197,9.689,5.469,11.401
						c-0.14,0.41-0.22,0.839-0.22,1.285c0,0.956,0.348,1.843,0.939,2.593c-1.901,0.721-3.126,1.837-3.126,3.094
						c0,1.123,0.979,2.133,2.543,2.85c-1.68,0.675-3.218,1.637-4.559,2.836l-7.754-11.373l-5.877,5.877l10.776,8.863
						c-1.618,2.55-2.565,5.599-2.565,8.882c0,6.078,3.23,11.362,8.001,14.129c-3.821,0.542-6.352,1.479-6.352,2.547
						c0,1.68,6.247,3.04,13.953,3.04c7.705,0,13.953-1.36,13.953-3.04c0-1.068-2.532-2.005-6.353-2.547
						c4.771-2.767,8.001-8.052,8.001-14.129c0-2.526-0.573-4.906-1.567-7.036l4.497-4.497c2.16,1.178,4.148,1.419,5.147,0.42
						c1.075-1.075,0.718-3.293-0.7-5.639c0.248-0.155,0.484-0.332,0.7-0.547c1.538-1.538,1.538-4.03,0-5.568
						c-1.537-1.538-4.03-1.538-5.567,0c-0.215,0.215-0.393,0.452-0.548,0.7c-2.346-1.418-4.564-1.774-5.639-0.7
						c-1.06,1.061-0.729,3.233,0.642,5.545l-3.878,3.878c-0.951-0.663-1.982-1.207-3.066-1.642c1.563-0.717,2.543-1.727,2.543-2.85
						c0-1.257-1.226-2.374-3.126-3.094c0.591-0.749,0.939-1.637,0.939-2.592c0-0.445-0.081-0.875-0.22-1.284
						c3.272-1.711,5.47-5.26,5.47-11.402c0-6.862-2.735-15.017-6.658-18.828c3.922-7.723,6.658-24.243,6.658-38.146
						c0-14.256-2.876-21.646-6.96-24.402c2.588-0.693,4.335-1.993,4.335-3.487c0-1.235-1.194-2.338-3.07-3.076
						c3.782-2.065,6.365-6.177,6.365-10.922c0-4.084-1.919-7.693-4.863-9.938c0.985-0.654,1.568-1.449,1.568-2.31
						c0-1.752-2.402-3.237-5.747-3.787c0.508-6.713,0.664-14.758,1.267-14.788c5.984-0.293,11.042-1.238,11.042-2.837
						c0-2.392-3.92-7.255-8.033-10.68C279.805,76.972,286.555,68.536,286.555,65.127z"/>
				</g>
			</g>
			<g>
				<g>
					<path class="st41" d="M229.105,65.127c0,3.388,6.671,11.739,21.326,13.924c-4.088,3.426-7.766,8.32-7.766,10.722
						c0,1.591,5.013,2.536,10.963,2.833c0.636,0.032,0.836,8.052,1.384,14.785c-3.366,0.545-5.786,2.035-5.786,3.794
						c0,0.861,0.583,1.656,1.569,2.31c-2.944,2.246-4.863,5.854-4.863,9.938c0,4.745,2.583,8.857,6.365,10.922
						c-1.876,0.737-3.07,1.84-3.07,3.076c0,1.494,1.748,2.794,4.335,3.487c-4.083,2.756-6.96,10.146-6.96,24.402
						c0,13.903,2.735,30.424,6.658,38.146c-3.922,3.812-6.658,11.966-6.658,18.828c0,6.141,2.197,9.689,5.469,11.401
						c-0.14,0.41-0.22,0.839-0.22,1.285c0,0.956,0.348,1.843,0.939,2.593c-1.901,0.721-3.126,1.837-3.126,3.094
						c0,1.123,0.979,2.133,2.543,2.85c-1.68,0.675-3.218,1.637-4.559,2.836l-7.754-11.373l-5.877,5.877l10.776,8.863
						c-1.618,2.55-2.565,5.599-2.565,8.882c0,6.078,3.23,11.362,8.001,14.129c-3.821,0.542-6.352,1.479-6.352,2.547
						c0,1.68,6.247,3.04,13.953,3.04V65.127H229.105z"/>
				</g>
			</g>
			<g>
				<g>
					<path class="st73" d="M301.428,455.111l-25.467-2.376c-1.299-0.305-23.944,0.361-25.243,0.666v8.341
						c1.3,0.304,23.944-0.362,25.243-0.666l25.467-2.379C302.726,457.71,302.726,456.103,301.428,455.111z"/>
				</g>
			</g>
		</g>
		<g>
			<g>
				<path class="st94" d="M304.489,378.896c0-17.55-13.612-32.412-32.412-37.494l4.543-58.063c1.863-0.698,2.936-1.509,2.936-2.375
					c0-2.614-9.727-4.733-21.726-4.733c-11.999,0-21.726,2.119-21.726,4.733c0,0.787,0.887,1.529,2.446,2.182l4.569,58.39
					c-18.559,5.2-31.949,19.956-31.949,37.361c0,14.832,9.725,27.743,24.084,34.455c0,0-3.524,9.653-3.524,10.601
					c0,3.141,11.686,5.687,26.101,5.687c14.414,0,26.1-2.546,26.1-5.687c0-0.948-3.524-10.601-3.524-10.601
					C294.765,406.639,304.489,393.728,304.489,378.896z"/>
			</g>
		</g>
		<g>
			<g>
				<path class="st28" d="M236.104,280.964c0,0.787,0.887,1.529,2.446,2.182l4.569,58.39c-18.559,5.2-31.949,19.956-31.949,37.361
					c0,14.832,9.725,27.743,24.084,34.455c0,0-3.524,9.653-3.524,10.601c0,3.141,11.686,5.687,26.101,5.687V276.231
					C245.831,276.231,236.104,278.35,236.104,280.964z"/>
			</g>
		</g>
		<g>
			<g>
				<g>
					<path class="st40" d="M224.454,369.537c-4.887,0-8.847,3.96-8.847,8.845c0,2.861,1.363,5.396,3.469,7.013
						c-0.882-1.145-1.412-2.576-1.412-4.132c0-3.749,3.04-6.79,6.79-6.79c3.749,0,6.789,3.041,6.789,6.79
						c0,1.556-0.53,2.987-1.411,4.132c2.106-1.617,3.469-4.152,3.469-7.013C233.3,373.497,229.339,369.537,224.454,369.537z"/>
				</g>
			</g>
			<g>
				<g>
					<path class="st40" d="M246.696,372.242c-4.886,0-8.847,3.96-8.847,8.846c0,2.861,1.363,5.396,3.469,7.013
						c-0.881-1.145-1.412-2.576-1.412-4.132c0-3.749,3.04-6.79,6.79-6.79c3.75,0,6.789,3.041,6.789,6.79
						c0,1.556-0.529,2.987-1.411,4.132c2.105-1.617,3.468-4.152,3.468-7.013C255.542,376.202,251.582,372.242,246.696,372.242z"/>
				</g>
			</g>
			<g>
				<g>
					<path class="st34" d="M269.75,372.242c-4.886,0-8.847,3.96-8.847,8.846c0,2.861,1.363,5.396,3.468,7.013
						c-0.881-1.145-1.411-2.576-1.411-4.132c0-3.749,3.039-6.79,6.79-6.79c3.749,0,6.789,3.041,6.789,6.79
						c0,1.556-0.53,2.987-1.411,4.132c2.105-1.617,3.469-4.152,3.469-7.013C278.596,376.202,274.635,372.242,269.75,372.242z"/>
				</g>
			</g>
			<g>
				<g>
					<path class="st34" d="M291.326,369.537c-4.886,0-8.847,3.96-8.847,8.845c0,2.861,1.363,5.396,3.469,7.013
						c-0.882-1.145-1.412-2.576-1.412-4.132c0-3.749,3.04-6.79,6.79-6.79c3.749,0,6.789,3.041,6.789,6.79
						c0,1.556-0.529,2.987-1.412,4.132c2.106-1.617,3.47-4.152,3.47-7.013C300.173,373.497,296.212,369.537,291.326,369.537z"/>
				</g>
			</g>
		</g>
	</g>
</g>
</svg>
